<?xml version="1.0" standalone="no"?><!DOCTYPE svg PUBLIC "-//W3C//DTD SVG 1.1//EN" "http://www.w3.org/Graphics/SVG/1.1/DTD/svg11.dtd"><svg t="1599833515337" class="icon" viewBox="0 0 1024 1024" version="1.1" xmlns="http://www.w3.org/2000/svg" p-id="2560" data-darkreader-inline-fill="" xmlns:xlink="http://www.w3.org/1999/xlink" width="200" height="200"><defs><style type="text/css"></style></defs><path d="M512 512m-512 0a512 512 0 1 0 1024 0 512 512 0 1 0-1024 0Z" fill="#8D6E63" p-id="2561" style="--darkreader-inline-fill:#6b5953;" data-darkreader-inline-fill=""></path><path d="M318.464 658.432l342.2208 343.552a512.9216 512.9216 0 0 0 343.4496-348.7744L705.6384 357.376z" fill="#7A5F57" p-id="2562" style="--darkreader-inline-fill:#5d4d49;" data-darkreader-inline-fill=""></path><path d="M350.0032 354.304m10.24 0l338.0224 0q10.24 0 10.24 10.24l0 252.416q0 10.24-10.24 10.24l-338.0224 0q-10.24 0-10.24-10.24l0-252.416q0-10.24 10.24-10.24Z" fill="#FFFFFF" p-id="2563" style="--darkreader-inline-fill:#181a1b;" data-darkreader-inline-fill=""></path><path d="M315.4944 388.4032m10.24 0l338.0224 0q10.24 0 10.24 10.24l0 252.416q0 10.24-10.24 10.24l-338.0224 0q-10.24 0-10.24-10.24l0-252.416q0-10.24 10.24-10.24Z" fill="#FFFFFF" p-id="2564" style="--darkreader-inline-fill:#181a1b;" data-darkreader-inline-fill=""></path><path d="M324.9152 661.2992a142.5408 142.5408 0 0 1 121.0368-68.1984 151.2448 151.2448 0 0 1 125.44 68.3008z" fill="#26A69A" p-id="2565" style="--darkreader-inline-fill:#367e77;" data-darkreader-inline-fill=""></path><path d="M628.3264 504.2176a114.9952 114.9952 0 0 0-107.2128 157.184h142.6432a10.24 10.24 0 0 0 10.24-10.24V513.6384a114.7904 114.7904 0 0 0-45.6704-9.4208z" fill="#26A69A" p-id="2566" style="--darkreader-inline-fill:#7ed3cb;" data-darkreader-inline-fill=""></path><path d="M406.9376 453.632m-35.84 0a35.84 35.84 0 1 0 71.68 0 35.84 35.84 0 1 0-71.68 0Z" fill="#FF7043" p-id="2567" style="--darkreader-inline-fill:#dd7c5d;" data-darkreader-inline-fill=""></path></svg>