<?xml version="1.0" standalone="no"?><!DOCTYPE svg PUBLIC "-//W3C//DTD SVG 1.1//EN" "http://www.w3.org/Graphics/SVG/1.1/DTD/svg11.dtd"><svg t="1557400070246" class="icon" style="" viewBox="0 0 1024 1024" version="1.1" xmlns="http://www.w3.org/2000/svg" p-id="3856" xmlns:xlink="http://www.w3.org/1999/xlink" width="48" height="48"><defs><style type="text/css"></style></defs><path d="M512 512m-486.4 0a486.4 486.4 0 1 0 972.8 0 486.4 486.4 0 1 0-972.8 0Z" fill="#31AD37" p-id="3857"></path><path d="M759.808 582.656c0-72.832-72.832-132.096-154.752-132.096-86.784 0-154.88 59.264-154.88 132.096 0 72.96 68.096 132.096 154.88 132.096 18.176 0 36.48-4.608 54.656-9.088l50.048 27.392-13.696-45.568c36.48-27.264 63.744-63.744 63.744-104.832z m-205.056-22.784c-9.088 0-18.176-9.088-18.176-18.176s9.088-18.176 18.176-18.176c13.696 0 22.784 9.088 22.784 18.176 0 9.216-9.088 18.176-22.784 18.176z m100.352 0c-9.088 0-18.176-9.088-18.176-18.176s9.088-18.176 18.176-18.176c13.696 0 22.784 9.088 22.784 18.176 0 9.216-9.344 18.176-22.784 18.176z" fill="#FFFFFF" p-id="3858"></path><path d="M420.224 304.896c-102.144 0-185.984 69.632-185.984 158.208 0 51.072 27.776 93.056 74.368 125.696l-18.56 56.064 65.152-32.768c23.296 4.48 41.984 9.216 65.152 9.216 5.76 0 11.52-0.256 17.28-0.768-3.712-12.416-5.76-25.472-5.76-38.912 0-81.152 69.888-147.072 158.208-147.072 6.016 0 11.904 0.384 17.92 1.024-16.128-75.008-96.256-130.688-187.776-130.688zM359.68 430.592c-13.952 0-28.032-9.216-28.032-23.296 0-13.952 13.952-23.296 28.032-23.296 14.08 0 23.296 9.216 23.296 23.296 0 13.824-9.344 23.296-23.296 23.296z m130.176 0c-14.08 0-28.032-9.216-28.032-23.296 0.256-14.08 14.208-23.296 28.032-23.296 13.952 0 23.296 9.216 23.296 23.296 0 13.952-9.344 23.296-23.296 23.296z" fill="#FFFFFF" p-id="3859"></path></svg>