<?xml version="1.0" standalone="no"?><!DOCTYPE svg PUBLIC "-//W3C//DTD SVG 1.1//EN" "http://www.w3.org/Graphics/SVG/1.1/DTD/svg11.dtd"><svg t="1589770219317" class="icon" viewBox="0 0 1024 1024" version="1.1" xmlns="http://www.w3.org/2000/svg" p-id="1734" width="48" height="48" xmlns:xlink="http://www.w3.org/1999/xlink"><defs><style type="text/css"></style></defs><path d="M506.9312 0C226.944 0 0 226.944 0 506.9312s226.944 506.9312 506.9312 506.9312 506.9312-226.944 506.9312-506.9312S786.9184 0 506.9312 0z m201.7536 430.1824c-1.024 4.4032-3.4816 10.9568-6.9376 18.816h0.0512l-0.4096 0.768c-20.2752 45.5168-73.1392 134.8352-73.1392 134.8352l-0.3072-0.5632-15.4624 28.288h74.496l-142.2848 198.7584L577.024 675.84h-58.6496l20.3776-89.4208c-16.4864 4.1984-35.9936 9.9328-59.0592 17.7408 0 0-31.1808 19.2-89.8816-36.9664 0 0-39.6032-36.6336-16.6912-45.7728 9.7792-3.8912 47.4112-8.8576 77.056-13.0304 40.064-5.7088 64.64-8.704 64.64-8.704s-123.4432 1.92-152.6272-2.8928c-29.312-4.8128-66.432-56.1152-74.3168-101.2224 0 0-12.288-24.7552 26.2912-13.056 38.528 11.6736 198.0672 45.6448 198.0672 45.6448s-207.5392-66.816-221.2864-83.1488c-13.824-16.2048-40.6528-88.9088-37.1456-133.5808 0 0 1.536-11.136 12.3648-8.1408 0 0 153.3952 73.6 258.304 113.92 104.8064 40.2688 196.0192 60.8 184.2432 112.9728z" fill="#4494F0" p-id="1735"></path></svg>