<?xml version="1.0" standalone="no"?><!DOCTYPE svg PUBLIC "-//W3C//DTD SVG 1.1//EN" "http://www.w3.org/Graphics/SVG/1.1/DTD/svg11.dtd"><svg t="1578642309405" class="icon" viewBox="0 0 1024 1024" version="1.1" xmlns="http://www.w3.org/2000/svg" p-id="1205" xmlns:xlink="http://www.w3.org/1999/xlink" width="128" height="128"><defs><style type="text/css"></style></defs><path d="M1024 512c0 282.784-229.216 512-512 512S0 794.784 0 512 229.216 0 512 0s512 229.216 512 512z" fill="#F23430" p-id="1206"></path><path d="M776.544 341.344h-194.56a28.864 28.864 0 0 0-25.6 17.056l-81.92 170.656-47.776 102.4c-3.424 8.544-8.544 0-8.544 0l-102.4-215.04s-3.424-8.544 5.12-8.544h81.92a14.72 14.72 0 0 1 13.664 8.544c15.36 30.72 29.024 54.624 39.264 75.104 0 1.696 37.536-76.8 37.536-78.496-6.816-15.36-17.056-34.144-27.296-54.624-3.424-10.24-13.664-15.36-25.6-17.056H247.488c-20.48 0-30.72 18.784-23.904 34.144l170.656 361.824c5.12 10.24 17.056 15.36 30.72 15.36 11.936 0 22.176-5.12 29.024-15.36L512 614.432l93.856-194.56s3.424-8.544 13.664-8.544h80.224c10.24 0 5.12 8.544 5.12 8.544l-100.704 213.344s-3.424 8.544-8.544 0l-29.024-61.44-37.536 78.496 40.96 87.04c5.12 10.24 17.056 17.056 32.416 17.056a30.4 30.4 0 0 0 27.296-17.056l168.96-358.4c8.544-20.48-1.696-37.536-22.176-37.536z" fill="#FFFFFF" p-id="1207"></path></svg>