<?xml version="1.0" standalone="no"?><!DOCTYPE svg PUBLIC "-//W3C//DTD SVG 1.1//EN" "http://www.w3.org/Graphics/SVG/1.1/DTD/svg11.dtd"><svg t="1574653936188" class="icon" viewBox="0 0 1024 1024" version="1.1" xmlns="http://www.w3.org/2000/svg" p-id="1506" xmlns:xlink="http://www.w3.org/1999/xlink" width="16" height="16"><defs><style type="text/css"></style></defs><path d="M288.512 301.056c-11.776-17.664-22.784-34.304-34.048-51.456 38.912-9.216 44.288-7.424 69.888 23.04 6.144-8.704 11.776-16.384 16.128-22.528 12.8-6.656 25.6-12.032 37.12-19.712 47.104-30.976 93.696-62.72 143.104-90.112-39.168 32.256-78.336 64.768-117.504 97.024-9.472 7.68-14.848 13.824-5.888 26.88 53.76 77.056 106.496 154.624 159.744 231.936 1.28 2.048 3.84 3.072 5.888 4.352 13.824-10.24 13.824-20.48 4.096-34.304-45.056-64.512-89.088-129.792-133.376-194.816-4.608-6.912-9.216-13.824-13.824-21.248 35.072-11.52 46.08-8.448 64.512 18.432 39.168 57.088 78.336 114.432 119.552 175.104 97.792-117.248 216.832-192 371.456-199.168-117.504 42.752-190.976 135.168-262.144 230.656-9.472 12.544-8.448 20.736 0 33.024 69.12 99.328 137.472 199.168 206.08 298.752 4.608 6.912 8.96 13.824 13.824 21.248-37.376 10.496-45.824 7.936-66.048-21.504-57.6-83.456-115.2-167.168-172.8-250.88-5.12-7.424-10.752-14.592-16.128-22.016-18.944 12.544-14.08 24.576-4.096 38.912 55.04 79.104 109.568 158.72 164.352 238.08 3.84 5.632 7.424 11.264 11.008 17.152-34.304 11.776-46.336 8.192-65.536-19.712-44.032-64.256-88.064-128.512-132.096-192.512-3.84-5.376-8.192-10.496-12.544-16.384-18.944 11.776-10.752 23.552-2.304 35.84 44.032 64 87.808 128.256 131.84 193.024-35.84 11.52-46.336 7.936-65.792-19.968-34.048-49.408-67.84-98.816-103.936-151.296-97.792 123.392-228.608 173.056-381.44 173.568 9.472-3.328 18.944-6.912 28.416-10.24 106.496-36.352 182.784-109.824 246.272-199.424 3.584-4.864 5.376-15.616 2.56-19.712-60.672-89.6-122.368-178.432-186.624-271.872-24.832 31.488-48.896 59.648-70.4 89.344-51.968 72.192-90.368 150.528-106.496 239.104-21.248 117.504 48.896 208.64 168.192 216.576 69.632 4.608 136.192-11.264 201.472-33.024 7.68-2.56 15.616-4.864 24.064-5.376-78.336 36.096-159.232 61.44-246.272 63.744-20.224 0.512-40.704-0.512-60.672-4.096-128.256-23.296-190.464-116.736-163.328-244.48C76.8 547.584 133.376 463.104 203.008 386.56c26.624-29.44 56.064-56.064 85.504-85.504z m69.376-17.92c-18.944 9.984-16.128 18.944-7.936 30.72 31.744 44.8 62.464 90.368 93.696 135.68 26.624 38.656 53.504 77.312 80.896 116.736 15.36-13.312 12.032-24.32 3.328-36.608-30.464-43.52-60.672-87.552-90.88-131.328-26.368-38.144-52.48-76.288-79.104-115.2z" p-id="1507" fill="#FFFFFF"></path></svg>