<svg id="svg" version="1.1" xmlns="http://www.w3.org/2000/svg" xmlns:xlink="http://www.w3.org/1999/xlink" width="400" height="400" viewBox="0, 0, 400,400"><g id="svgg"><path id="path0" d="M167.432 1.002 C 165.905 1.777,164.853 2.000,162.732 2.000 C 161.177 2.000,160.000 2.172,160.000 2.400 C 160.000 2.620,159.248 2.800,158.328 2.800 C 156.717 2.800,154.554 3.317,153.105 4.049 C 152.723 4.242,151.591 4.400,150.589 4.400 C 149.319 4.400,148.506 4.643,147.908 5.200 C 147.306 5.761,146.496 6.000,145.200 6.000 C 143.904 6.000,143.094 6.239,142.492 6.800 C 141.908 7.344,141.081 7.600,139.905 7.600 C 138.635 7.600,138.024 7.812,137.600 8.400 C 137.178 8.986,136.565 9.200,135.312 9.200 C 134.370 9.200,133.600 9.372,133.600 9.582 C 133.600 9.792,132.925 10.086,132.100 10.235 C 131.275 10.383,130.240 10.698,129.800 10.933 C 129.360 11.168,127.564 11.853,125.809 12.454 C 124.054 13.055,122.554 13.739,122.476 13.973 C 122.397 14.208,121.833 14.400,121.221 14.400 C 120.609 14.400,119.650 14.760,119.091 15.200 C 118.531 15.640,117.725 16.000,117.299 16.000 C 116.873 16.000,116.198 16.360,115.800 16.800 C 115.402 17.240,114.682 17.600,114.200 17.600 C 113.718 17.600,112.998 17.960,112.600 18.400 C 112.202 18.840,111.536 19.200,111.121 19.200 C 110.706 19.200,109.980 19.560,109.508 20.000 C 109.036 20.440,108.233 20.800,107.725 20.800 C 107.216 20.800,106.800 20.980,106.800 21.200 C 106.800 21.420,106.480 21.600,106.088 21.600 C 105.697 21.600,105.117 21.960,104.800 22.400 C 104.483 22.840,103.847 23.200,103.387 23.200 C 102.927 23.200,102.164 23.560,101.692 24.000 C 101.220 24.440,100.596 24.800,100.305 24.800 C 100.014 24.800,99.517 25.160,99.200 25.600 C 98.883 26.040,98.213 26.400,97.712 26.400 C 97.210 26.400,96.800 26.547,96.800 26.726 C 96.800 26.905,96.215 27.354,95.500 27.723 C 94.785 28.093,93.847 28.621,93.416 28.898 C 92.984 29.174,91.306 30.255,89.686 31.300 C 88.066 32.345,86.654 33.200,86.547 33.200 C 86.259 33.200,83.022 35.751,82.867 36.100 C 82.793 36.265,82.518 36.400,82.255 36.400 C 81.992 36.400,81.517 36.760,81.200 37.200 C 80.883 37.640,80.395 38.000,80.115 38.000 C 79.836 38.000,79.382 38.360,79.107 38.800 C 78.832 39.240,78.381 39.600,78.104 39.600 C 77.827 39.600,77.600 39.780,77.600 40.000 C 77.600 40.220,77.396 40.400,77.147 40.400 C 76.898 40.400,76.403 40.727,76.047 41.128 C 75.691 41.528,75.085 41.972,74.700 42.115 C 74.315 42.258,74.000 42.651,74.000 42.987 C 74.000 43.324,73.655 43.600,73.233 43.600 C 72.812 43.600,72.407 43.736,72.333 43.903 C 72.260 44.069,70.501 45.631,68.425 47.374 C 63.827 51.233,59.200 55.734,59.200 56.348 C 59.200 56.597,58.994 56.800,58.741 56.800 C 58.148 56.800,47.371 67.861,46.548 69.314 C 46.357 69.652,45.615 70.570,44.900 71.354 C 44.185 72.137,43.600 72.963,43.600 73.187 C 43.600 73.412,42.700 74.515,41.600 75.639 C 40.500 76.762,39.600 77.893,39.600 78.152 C 39.600 78.411,39.240 78.883,38.800 79.200 C 38.360 79.517,38.000 80.007,38.000 80.288 C 38.000 80.570,37.825 80.800,37.612 80.800 C 37.399 80.800,36.288 82.195,35.144 83.900 C 34.000 85.605,32.947 87.090,32.802 87.200 C 32.658 87.310,32.104 88.210,31.570 89.200 C 31.037 90.190,30.485 91.090,30.345 91.200 C 30.205 91.310,29.755 91.975,29.345 92.677 C 26.621 97.343,25.422 99.200,25.132 99.200 C 24.949 99.200,24.800 99.610,24.800 100.112 C 24.800 100.613,24.440 101.283,24.000 101.600 C 23.560 101.917,23.196 102.542,23.191 102.988 C 23.186 103.435,22.830 104.250,22.400 104.800 C 21.970 105.350,21.614 106.025,21.609 106.300 C 21.604 106.575,21.443 106.800,21.250 106.800 C 21.058 106.800,20.796 107.318,20.670 107.952 C 20.543 108.585,20.160 109.382,19.820 109.723 C 19.479 110.064,19.196 110.581,19.191 110.871 C 19.186 111.162,18.830 111.850,18.400 112.400 C 17.970 112.950,17.614 113.723,17.609 114.117 C 17.604 114.511,17.240 115.220,16.800 115.692 C 16.360 116.164,16.000 116.939,16.000 117.413 C 16.000 117.888,15.640 118.602,15.200 119.000 C 14.760 119.398,14.400 119.996,14.400 120.328 C 14.400 120.986,12.385 126.411,11.163 129.044 C 10.743 129.948,10.400 131.060,10.400 131.515 C 10.400 131.970,10.130 132.613,9.800 132.943 C 9.451 133.291,9.200 134.269,9.200 135.275 C 9.200 136.574,9.000 137.132,8.400 137.507 C 7.801 137.881,7.600 138.440,7.600 139.728 C 7.600 140.896,7.343 141.725,6.800 142.308 C 6.262 142.885,5.997 143.729,5.991 144.883 C 5.985 145.968,5.694 146.968,5.200 147.600 C 4.687 148.256,4.415 149.232,4.409 150.439 C 4.404 151.450,4.117 152.844,3.771 153.538 C 3.425 154.231,3.040 155.794,2.914 157.011 C 2.788 158.228,2.531 159.319,2.343 159.435 C 2.154 159.552,2.000 160.956,2.000 162.556 C 2.000 164.865,1.794 165.870,1.002 167.432 L 0.003 169.400 0.002 199.940 C -0.000 232.048,-0.055 230.893,1.634 234.095 C 1.835 234.477,2.000 236.106,2.000 237.715 C 2.000 239.324,2.163 240.811,2.361 241.020 C 2.560 241.229,2.822 242.210,2.943 243.200 C 3.352 246.543,3.686 248.000,4.044 248.000 C 4.240 248.000,4.400 248.805,4.400 249.788 C 4.400 250.834,4.732 252.166,5.200 253.000 C 5.640 253.783,6.000 255.111,6.000 255.950 C 6.000 256.968,6.266 257.717,6.800 258.200 C 7.356 258.703,7.600 259.432,7.600 260.587 C 7.600 261.696,7.866 262.535,8.400 263.108 C 8.888 263.631,9.200 264.519,9.200 265.383 C 9.200 266.162,9.367 266.800,9.572 266.800 C 9.776 266.800,10.146 267.776,10.394 268.969 C 10.641 270.162,11.104 271.354,11.422 271.618 C 11.740 271.882,12.000 272.372,12.000 272.708 C 12.000 273.579,13.700 278.174,14.081 278.333 C 14.256 278.407,14.400 278.877,14.400 279.379 C 14.400 279.881,14.760 280.750,15.200 281.309 C 15.640 281.869,16.004 282.658,16.009 283.063 C 16.014 283.468,16.370 284.250,16.800 284.800 C 17.230 285.350,17.586 286.123,17.591 286.517 C 17.596 286.911,17.960 287.620,18.400 288.092 C 18.840 288.564,19.200 289.243,19.200 289.600 C 19.200 289.957,19.560 290.636,20.000 291.108 C 20.440 291.580,20.800 292.244,20.800 292.583 C 20.800 292.922,20.980 293.200,21.200 293.200 C 21.420 293.200,21.600 293.560,21.600 294.000 C 21.600 294.440,21.780 294.800,22.000 294.800 C 22.220 294.800,22.400 295.160,22.400 295.600 C 22.400 296.040,22.580 296.400,22.800 296.400 C 23.020 296.400,23.200 296.720,23.200 297.112 C 23.200 297.503,23.560 298.083,24.000 298.400 C 24.440 298.717,24.800 299.353,24.800 299.813 C 24.800 300.273,25.160 301.036,25.600 301.508 C 26.040 301.980,26.400 302.562,26.400 302.800 C 26.400 303.039,26.583 303.451,26.806 303.717 C 27.642 304.713,29.129 307.146,29.375 307.922 C 29.516 308.364,29.894 308.827,30.215 308.950 C 30.537 309.074,30.800 309.451,30.800 309.787 C 30.800 310.124,30.980 310.400,31.200 310.400 C 31.420 310.400,31.600 310.593,31.600 310.828 C 31.600 311.335,34.009 314.941,34.477 315.133 C 34.655 315.207,34.800 315.499,34.800 315.784 C 34.800 316.068,35.520 317.066,36.400 318.000 C 37.280 318.934,38.000 319.907,38.000 320.161 C 38.000 320.415,38.360 320.883,38.800 321.200 C 39.240 321.517,39.600 321.917,39.600 322.087 C 39.600 322.258,40.320 323.163,41.200 324.097 C 42.080 325.031,42.800 326.007,42.800 326.264 C 42.800 326.522,42.946 326.793,43.124 326.867 C 43.302 326.940,44.158 327.905,45.026 329.012 C 47.178 331.755,47.298 331.890,51.500 336.261 C 53.535 338.378,55.200 340.223,55.200 340.361 C 55.200 340.499,55.920 341.056,56.800 341.600 C 57.680 342.144,58.400 342.829,58.400 343.123 C 58.400 343.750,59.367 344.800,59.944 344.800 C 60.165 344.800,60.460 345.160,60.600 345.600 C 60.740 346.040,61.000 346.400,61.179 346.400 C 61.358 346.400,62.795 347.660,64.372 349.200 C 65.949 350.740,67.404 352.000,67.606 352.000 C 67.807 352.000,68.165 352.360,68.400 352.800 C 68.635 353.240,69.001 353.600,69.213 353.600 C 69.425 353.600,70.266 354.230,71.082 355.000 C 71.899 355.770,72.683 356.400,72.825 356.400 C 72.967 356.400,73.536 356.805,74.090 357.300 C 75.936 358.950,76.806 359.600,77.171 359.600 C 77.370 359.600,78.042 360.140,78.665 360.800 C 79.288 361.460,79.983 362.000,80.210 362.000 C 80.438 362.000,80.883 362.360,81.200 362.800 C 81.517 363.240,82.057 363.600,82.400 363.600 C 82.743 363.600,83.283 363.960,83.600 364.400 C 83.917 364.840,84.401 365.200,84.674 365.200 C 84.948 365.200,85.365 365.560,85.600 366.000 C 85.835 366.440,86.264 366.800,86.552 366.800 C 86.840 366.800,87.402 367.160,87.800 367.600 C 88.198 368.040,88.689 368.400,88.890 368.400 C 89.091 368.400,90.011 368.895,90.935 369.500 C 93.626 371.264,94.143 371.578,95.200 372.094 C 95.750 372.362,97.053 373.171,98.096 373.891 C 99.139 374.611,100.236 375.200,100.534 375.200 C 100.832 375.200,101.402 375.560,101.800 376.000 C 102.198 376.440,102.864 376.800,103.279 376.800 C 103.694 376.800,104.420 377.160,104.892 377.600 C 105.364 378.040,106.167 378.400,106.675 378.400 C 107.184 378.400,107.600 378.580,107.600 378.800 C 107.600 379.020,107.920 379.200,108.312 379.200 C 108.703 379.200,109.283 379.560,109.600 380.000 C 109.918 380.441,110.635 380.800,111.200 380.800 C 111.765 380.800,112.482 381.159,112.800 381.600 C 113.117 382.040,113.753 382.400,114.213 382.400 C 114.673 382.400,115.436 382.760,115.908 383.200 C 116.380 383.640,117.196 384.000,117.721 384.000 C 118.246 384.000,119.002 384.360,119.400 384.800 C 119.798 385.240,120.554 385.600,121.079 385.600 C 121.604 385.600,122.420 385.960,122.892 386.400 C 123.364 386.840,124.032 387.200,124.375 387.200 C 125.173 387.200,129.279 388.743,129.780 389.230 C 129.989 389.434,130.619 389.601,131.180 389.603 C 131.741 389.604,132.740 389.963,133.400 390.400 C 134.060 390.837,135.172 391.196,135.871 391.197 C 136.571 391.199,137.413 391.470,137.743 391.800 C 138.082 392.139,139.059 392.400,139.988 392.400 C 141.081 392.400,141.922 392.669,142.492 393.200 C 143.094 393.761,143.904 394.000,145.200 394.000 C 146.496 394.000,147.306 394.239,147.908 394.800 C 148.528 395.378,149.319 395.600,150.760 395.600 C 151.856 395.600,152.864 395.780,153.000 396.000 C 153.136 396.220,153.676 396.400,154.200 396.400 C 154.724 396.400,155.264 396.580,155.400 396.800 C 155.536 397.020,156.627 397.200,157.824 397.200 C 159.021 397.200,160.000 397.380,160.000 397.600 C 160.000 397.831,161.267 398.000,163.000 398.000 C 164.733 398.000,166.000 398.169,166.000 398.400 C 166.000 398.620,166.249 398.800,166.554 398.800 C 166.859 398.800,167.624 399.069,168.254 399.398 C 169.979 400.297,230.021 400.297,231.746 399.398 C 232.376 399.069,233.141 398.800,233.446 398.800 C 233.751 398.800,234.000 398.620,234.000 398.400 C 234.000 398.169,235.267 398.000,237.000 398.000 C 238.733 398.000,240.000 397.831,240.000 397.600 C 240.000 397.380,240.979 397.200,242.176 397.200 C 243.373 397.200,244.464 397.020,244.600 396.800 C 244.736 396.580,245.276 396.400,245.800 396.400 C 246.324 396.400,246.864 396.220,247.000 396.000 C 247.136 395.780,248.227 395.600,249.424 395.600 C 250.621 395.600,251.600 395.420,251.600 395.200 C 251.600 394.980,251.870 394.800,252.200 394.800 C 252.530 394.800,252.800 394.620,252.800 394.400 C 252.800 394.180,253.666 394.000,254.725 394.000 C 256.096 394.000,256.896 393.770,257.508 393.200 C 258.078 392.669,258.919 392.400,260.012 392.400 C 260.941 392.400,261.918 392.139,262.257 391.800 C 262.587 391.470,263.429 391.199,264.129 391.197 C 264.828 391.196,265.940 390.837,266.600 390.400 C 267.260 389.963,268.255 389.604,268.811 389.603 C 269.367 389.601,270.177 389.363,270.611 389.073 C 271.618 388.400,274.839 387.200,275.638 387.200 C 275.974 387.200,276.636 386.840,277.108 386.400 C 277.580 385.960,278.486 385.600,279.121 385.600 C 279.768 385.600,280.595 385.248,281.000 384.800 C 281.398 384.360,282.112 384.000,282.587 384.000 C 283.061 384.000,283.836 383.640,284.308 383.200 C 284.780 382.760,285.489 382.396,285.883 382.391 C 286.277 382.386,287.050 382.030,287.600 381.600 C 288.150 381.170,288.915 380.814,289.300 380.809 C 289.685 380.804,290.001 380.665,290.003 380.500 C 290.007 380.141,291.944 379.200,292.680 379.200 C 292.966 379.200,293.200 379.020,293.200 378.800 C 293.200 378.580,293.520 378.400,293.912 378.400 C 294.303 378.400,294.883 378.040,295.200 377.600 C 295.518 377.159,296.235 376.800,296.800 376.800 C 297.365 376.800,298.082 376.441,298.400 376.000 C 298.717 375.560,299.286 375.200,299.665 375.200 C 300.043 375.200,300.466 375.017,300.604 374.794 C 300.742 374.571,301.427 374.116,302.127 373.783 C 303.960 372.913,305.091 372.223,305.929 371.464 C 306.333 371.099,306.881 370.800,307.148 370.800 C 307.415 370.800,308.020 370.440,308.492 370.000 C 308.964 369.560,309.587 369.200,309.875 369.200 C 310.164 369.200,310.400 369.020,310.400 368.800 C 310.400 368.580,310.636 368.400,310.925 368.400 C 311.213 368.400,311.836 368.040,312.308 367.600 C 312.780 367.160,313.326 366.800,313.521 366.800 C 313.716 366.800,314.202 366.440,314.600 366.000 C 314.998 365.560,315.522 365.200,315.764 365.200 C 316.006 365.200,316.969 364.480,317.903 363.600 C 318.837 362.720,319.773 362.000,319.983 362.000 C 320.192 362.000,320.788 361.595,321.306 361.100 C 322.997 359.484,324.990 358.015,325.500 358.007 C 325.775 358.003,326.000 357.742,326.000 357.427 C 326.000 357.112,326.315 356.753,326.700 356.630 C 327.305 356.436,329.535 354.618,331.634 352.607 C 331.982 352.273,332.385 352.000,332.530 352.000 C 332.675 352.000,334.800 350.020,337.254 347.600 C 339.707 345.180,341.869 343.200,342.057 343.200 C 342.246 343.200,342.401 343.065,342.402 342.900 C 342.404 342.735,344.609 340.306,347.302 337.503 C 353.544 331.007,352.800 331.871,357.705 325.424 C 358.197 324.777,359.005 323.840,359.500 323.342 C 359.995 322.844,360.400 322.276,360.400 322.080 C 360.400 321.884,360.760 321.398,361.200 321.000 C 361.640 320.602,362.000 320.147,362.000 319.989 C 362.000 319.830,362.720 318.913,363.600 317.951 C 364.480 316.988,365.200 316.003,365.200 315.762 C 365.200 315.521,365.560 314.998,366.000 314.600 C 366.440 314.202,366.800 313.634,366.800 313.338 C 366.800 313.042,366.958 312.800,367.151 312.800 C 367.345 312.800,367.727 312.260,368.000 311.600 C 368.273 310.940,368.655 310.400,368.849 310.400 C 369.042 310.400,369.200 310.083,369.200 309.696 C 369.200 309.309,369.560 308.768,370.000 308.493 C 370.440 308.218,370.800 307.678,370.800 307.293 C 370.800 306.908,371.160 306.368,371.600 306.093 C 372.040 305.818,372.400 305.323,372.400 304.993 C 372.400 304.662,373.030 303.495,373.800 302.400 C 374.570 301.305,375.200 300.086,375.200 299.692 C 375.200 299.299,375.560 298.717,376.000 298.400 C 376.440 298.083,376.800 297.447,376.800 296.987 C 376.800 296.527,377.160 295.764,377.600 295.292 C 378.040 294.820,378.400 294.156,378.400 293.817 C 378.400 293.478,378.580 293.200,378.800 293.200 C 379.020 293.200,379.200 292.966,379.200 292.680 C 379.200 291.944,380.141 290.007,380.500 290.003 C 380.665 290.001,380.804 289.685,380.809 289.300 C 380.814 288.915,381.170 288.150,381.600 287.600 C 382.030 287.050,382.386 286.277,382.391 285.883 C 382.396 285.489,382.760 284.780,383.200 284.308 C 383.640 283.836,384.000 283.116,384.000 282.708 C 384.000 282.300,384.360 281.580,384.800 281.108 C 385.240 280.636,385.600 279.957,385.600 279.600 C 385.600 279.243,385.960 278.205,386.400 277.294 C 386.840 276.384,387.200 275.371,387.200 275.043 C 387.200 274.715,387.380 274.336,387.600 274.200 C 387.820 274.064,388.004 273.558,388.009 273.076 C 388.014 272.594,388.370 271.750,388.800 271.200 C 389.230 270.650,389.586 269.674,389.591 269.031 C 389.596 268.389,389.891 267.541,390.247 267.148 C 390.603 266.754,390.986 265.618,391.099 264.623 C 391.211 263.627,391.550 262.608,391.851 262.357 C 392.153 262.107,392.404 261.249,392.409 260.451 C 392.414 259.630,392.758 258.566,393.200 258.000 C 393.703 257.357,393.989 256.357,394.000 255.200 C 394.011 254.043,394.297 253.043,394.800 252.400 C 395.339 251.711,395.585 250.767,395.591 249.367 C 395.596 248.248,395.729 247.205,395.886 247.047 C 396.296 246.638,397.161 243.200,397.182 241.900 C 397.192 241.295,397.380 240.800,397.600 240.800 C 397.835 240.800,398.000 239.400,398.000 237.400 C 398.000 235.400,398.165 234.000,398.400 234.000 C 398.620 234.000,398.800 233.751,398.800 233.446 C 398.800 233.141,399.069 232.376,399.398 231.746 C 400.297 230.021,400.297 169.979,399.398 168.254 C 399.069 167.624,398.800 166.859,398.800 166.554 C 398.800 166.249,398.620 166.000,398.400 166.000 C 398.167 166.000,398.000 164.675,398.000 162.824 C 398.000 161.077,397.820 159.536,397.600 159.400 C 397.380 159.264,397.192 158.668,397.182 158.076 C 397.161 156.795,396.292 153.359,395.886 152.953 C 395.729 152.795,395.596 151.752,395.591 150.633 C 395.585 149.233,395.339 148.289,394.800 147.600 C 394.289 146.946,394.015 145.968,394.009 144.775 C 394.003 143.513,393.754 142.686,393.200 142.092 C 392.682 141.536,392.400 140.681,392.400 139.666 C 392.400 138.803,392.153 137.893,391.851 137.643 C 391.550 137.392,391.211 136.373,391.099 135.377 C 390.986 134.382,390.603 133.246,390.247 132.852 C 389.891 132.459,389.600 131.640,389.600 131.032 C 389.600 130.424,389.240 129.469,388.800 128.909 C 388.360 128.350,388.000 127.477,388.000 126.970 C 388.000 126.462,387.820 125.936,387.600 125.800 C 387.380 125.664,387.200 125.285,387.200 124.957 C 387.200 124.629,386.840 123.616,386.400 122.706 C 385.960 121.795,385.600 120.757,385.600 120.400 C 385.600 120.043,385.240 119.364,384.800 118.892 C 384.360 118.420,384.000 117.666,384.000 117.217 C 384.000 116.768,383.640 116.040,383.200 115.600 C 382.760 115.160,382.396 114.485,382.391 114.100 C 382.386 113.715,382.030 112.950,381.600 112.400 C 381.170 111.850,380.814 111.085,380.809 110.700 C 380.804 110.315,380.665 109.999,380.500 109.997 C 380.141 109.993,379.200 108.056,379.200 107.320 C 379.200 107.034,379.020 106.800,378.800 106.800 C 378.580 106.800,378.400 106.522,378.400 106.183 C 378.400 105.844,378.040 105.180,377.600 104.708 C 377.160 104.236,376.800 103.473,376.800 103.013 C 376.800 102.553,376.440 101.917,376.000 101.600 C 375.560 101.283,375.200 100.701,375.200 100.308 C 375.200 99.914,374.570 98.695,373.800 97.600 C 373.030 96.505,372.400 95.454,372.400 95.266 C 372.400 95.078,372.040 94.598,371.600 94.200 C 371.160 93.802,370.800 93.210,370.800 92.885 C 370.800 92.560,370.480 92.003,370.089 91.647 C 369.698 91.291,368.934 90.145,368.390 89.100 C 367.846 88.055,367.266 87.200,367.101 87.200 C 366.935 87.200,366.800 86.958,366.800 86.662 C 366.800 86.366,366.440 85.798,366.000 85.400 C 365.560 85.002,365.200 84.479,365.200 84.238 C 365.200 83.997,364.480 83.012,363.600 82.049 C 362.720 81.087,362.000 80.143,362.000 79.953 C 362.000 79.763,361.640 79.382,361.200 79.107 C 360.760 78.832,360.400 78.381,360.400 78.105 C 360.400 77.828,359.750 76.926,358.955 76.101 C 358.160 75.275,357.215 74.134,356.855 73.565 C 355.888 72.038,353.927 69.563,352.900 68.574 C 352.405 68.098,352.000 67.610,352.000 67.489 C 352.000 67.369,349.840 65.064,347.200 62.367 C 344.560 59.670,342.400 57.314,342.400 57.132 C 342.400 56.949,342.242 56.800,342.048 56.800 C 341.855 56.800,340.006 55.135,337.939 53.100 C 335.873 51.065,333.399 48.770,332.443 48.000 C 329.000 45.227,327.798 44.195,327.667 43.900 C 327.593 43.735,327.188 43.600,326.767 43.600 C 326.267 43.600,326.000 43.322,326.000 42.800 C 326.000 42.360,325.764 42.000,325.475 42.000 C 325.187 42.000,324.564 41.640,324.092 41.200 C 323.620 40.760,323.126 40.400,322.995 40.400 C 322.864 40.400,322.181 39.861,321.478 39.202 C 320.775 38.543,320.065 38.003,319.901 38.002 C 319.736 38.001,318.837 37.280,317.903 36.400 C 316.969 35.520,316.006 34.800,315.764 34.800 C 315.522 34.800,314.998 34.440,314.600 34.000 C 314.202 33.560,313.662 33.200,313.400 33.200 C 313.138 33.200,312.598 32.840,312.200 32.400 C 311.802 31.960,311.311 31.600,311.110 31.600 C 310.909 31.600,309.959 31.060,309.000 30.400 C 308.041 29.740,307.151 29.200,307.024 29.200 C 306.896 29.200,305.895 28.570,304.800 27.800 C 303.705 27.030,302.486 26.400,302.092 26.400 C 301.699 26.400,301.117 26.040,300.800 25.600 C 300.483 25.160,299.943 24.800,299.600 24.800 C 299.257 24.800,298.717 24.440,298.400 24.000 C 298.082 23.559,297.365 23.200,296.800 23.200 C 296.235 23.200,295.518 22.841,295.200 22.400 C 294.883 21.960,294.303 21.600,293.912 21.600 C 293.520 21.600,293.200 21.420,293.200 21.200 C 293.200 20.980,292.750 20.800,292.200 20.800 C 291.650 20.800,291.200 20.620,291.200 20.400 C 291.200 20.180,290.930 20.000,290.600 20.000 C 290.270 20.000,290.000 19.820,290.000 19.600 C 290.000 19.380,289.685 19.196,289.300 19.191 C 288.915 19.186,288.150 18.830,287.600 18.400 C 287.050 17.970,286.277 17.614,285.883 17.609 C 285.489 17.604,284.780 17.240,284.308 16.800 C 283.836 16.360,283.106 16.000,282.688 16.000 C 282.269 16.000,281.469 15.640,280.909 15.200 C 280.350 14.760,279.454 14.400,278.917 14.400 C 278.381 14.400,277.697 14.154,277.396 13.853 C 277.095 13.552,275.533 12.882,273.924 12.363 C 272.316 11.844,270.903 11.287,270.785 11.124 C 270.667 10.961,269.632 10.627,268.485 10.381 C 267.338 10.135,266.400 9.769,266.400 9.567 C 266.400 9.365,265.630 9.200,264.688 9.200 C 263.435 9.200,262.822 8.986,262.400 8.400 C 261.976 7.812,261.365 7.600,260.095 7.600 C 258.919 7.600,258.092 7.344,257.508 6.800 C 256.896 6.230,256.096 6.000,254.725 6.000 C 253.666 6.000,252.800 5.820,252.800 5.600 C 252.800 5.380,252.530 5.200,252.200 5.200 C 251.870 5.200,251.600 5.020,251.600 4.800 C 251.600 4.580,250.698 4.400,249.595 4.400 C 248.492 4.400,247.277 4.242,246.895 4.049 C 245.446 3.317,243.283 2.800,241.672 2.800 C 240.752 2.800,240.000 2.620,240.000 2.400 C 240.000 2.174,238.865 2.000,237.395 2.000 C 235.962 2.000,234.477 1.835,234.095 1.634 C 230.893 -0.055,232.048 -0.000,199.940 0.002 L 169.400 0.003 167.432 1.002 M212.400 32.629 C 215.590 32.761,219.427 33.124,220.926 33.435 C 222.426 33.746,224.418 34.000,225.353 34.000 C 226.289 34.000,228.392 34.356,230.027 34.791 C 231.662 35.225,233.597 35.585,234.326 35.591 C 235.056 35.596,235.994 35.783,236.411 36.006 C 236.828 36.229,238.392 36.666,239.885 36.977 C 241.378 37.288,243.860 37.923,245.400 38.389 C 246.940 38.855,249.111 39.466,250.225 39.748 C 251.339 40.030,252.509 40.425,252.825 40.627 C 253.141 40.829,254.120 41.200,255.000 41.451 C 256.806 41.965,258.828 42.681,260.600 43.434 C 273.601 48.953,277.213 50.701,284.600 55.048 C 289.771 58.090,290.044 58.258,292.171 59.715 C 293.067 60.328,294.520 61.315,295.400 61.907 C 306.210 69.180,319.122 80.950,328.633 92.200 C 331.824 95.975,338.263 104.566,339.800 107.101 C 340.020 107.464,340.752 108.579,341.428 109.580 C 344.926 114.767,350.004 124.220,353.793 132.600 C 355.747 136.921,356.000 137.517,356.000 137.800 C 356.000 137.954,356.243 138.646,356.540 139.340 C 356.837 140.033,357.438 141.590,357.875 142.800 C 358.312 144.010,358.899 145.630,359.179 146.400 C 359.459 147.170,359.872 148.520,360.097 149.400 C 360.322 150.280,360.669 151.360,360.867 151.800 C 361.235 152.618,362.136 155.986,362.847 159.200 C 363.066 160.190,363.486 161.900,363.780 163.000 C 364.647 166.239,365.703 171.975,366.026 175.200 C 366.192 176.850,366.523 179.048,366.762 180.086 C 367.970 185.323,367.983 214.613,366.779 219.837 C 366.531 220.917,366.192 223.150,366.026 224.800 C 365.703 228.025,364.647 233.761,363.780 237.000 C 363.486 238.100,363.066 239.810,362.847 240.800 C 362.136 244.014,361.235 247.382,360.867 248.200 C 360.669 248.640,360.322 249.720,360.097 250.600 C 359.872 251.480,359.459 252.830,359.179 253.600 C 358.899 254.370,358.312 255.990,357.875 257.200 C 357.438 258.410,356.837 259.967,356.540 260.660 C 356.243 261.354,356.000 262.046,356.000 262.200 C 356.000 262.354,355.706 263.136,355.347 263.940 C 354.988 264.743,354.335 266.210,353.896 267.200 C 347.470 281.694,338.178 296.636,328.648 307.799 C 324.415 312.756,323.692 313.533,318.213 319.006 C 303.510 333.692,286.272 345.483,267.200 353.900 C 266.210 354.337,264.743 354.988,263.940 355.347 C 263.136 355.706,262.354 356.000,262.200 356.000 C 262.046 356.000,261.354 356.243,260.660 356.540 C 257.571 357.864,254.929 358.800,254.278 358.800 C 253.890 358.800,253.161 359.069,252.658 359.399 C 252.156 359.728,250.947 360.161,249.972 360.360 C 248.998 360.560,247.660 360.916,247.000 361.151 C 244.472 362.052,240.230 363.200,239.433 363.198 C 238.975 363.197,237.790 363.450,236.800 363.761 C 234.218 364.572,228.295 365.686,224.800 366.018 C 223.150 366.175,220.810 366.550,219.600 366.852 C 216.429 367.642,183.017 367.638,180.400 366.847 C 179.410 366.548,177.160 366.174,175.400 366.016 C 172.074 365.717,166.452 364.704,163.000 363.780 C 161.900 363.486,160.190 363.074,159.200 362.864 C 158.210 362.654,156.140 362.092,154.600 361.617 C 153.060 361.141,151.160 360.613,150.377 360.444 C 149.595 360.274,148.352 359.835,147.616 359.468 C 146.880 359.101,145.993 358.800,145.646 358.800 C 145.061 358.800,142.322 357.819,139.340 356.540 C 138.646 356.243,137.954 356.000,137.800 356.000 C 137.218 356.000,131.056 353.148,123.800 349.520 C 117.071 346.155,111.941 343.930,108.600 342.928 C 107.500 342.597,106.429 342.164,106.220 341.964 C 106.011 341.764,105.274 341.600,104.583 341.600 C 103.891 341.600,102.279 341.240,101.000 340.800 C 99.721 340.360,97.862 340.000,96.869 340.000 C 95.875 340.000,93.539 339.715,91.678 339.366 C 86.340 338.366,76.183 338.800,66.702 340.434 C 64.070 340.888,63.601 340.721,61.440 338.560 C 59.353 336.473,59.131 335.921,59.572 333.919 C 61.755 324.014,62.209 311.462,60.619 305.000 C 60.294 303.680,60.022 302.022,60.014 301.315 C 60.006 300.608,59.640 299.116,59.200 298.000 C 58.760 296.884,58.400 295.473,58.400 294.865 C 58.400 294.257,58.242 293.589,58.048 293.380 C 57.855 293.171,57.479 292.280,57.214 291.400 C 56.265 288.256,54.962 285.290,51.151 277.600 C 49.025 273.310,46.534 268.000,45.615 265.800 C 44.696 263.600,43.715 261.260,43.435 260.600 C 42.683 258.833,41.966 256.809,41.451 255.000 C 41.200 254.120,40.865 253.198,40.706 252.952 C 40.547 252.705,40.148 251.535,39.820 250.352 C 39.492 249.168,38.846 246.940,38.384 245.400 C 37.923 243.860,37.367 241.790,37.150 240.800 C 36.932 239.810,36.510 238.100,36.211 237.000 C 35.912 235.900,35.489 233.920,35.272 232.600 C 35.055 231.280,34.671 228.940,34.418 227.400 C 34.166 225.860,33.674 222.980,33.324 221.000 C 31.999 213.488,32.168 187.056,33.601 177.800 C 35.016 168.656,35.508 165.920,36.186 163.400 C 36.482 162.300,36.844 160.680,36.990 159.800 C 37.231 158.356,37.753 156.464,38.867 153.000 C 39.079 152.340,39.520 150.810,39.847 149.600 C 40.174 148.390,40.612 147.229,40.821 147.020 C 41.029 146.811,41.200 146.304,41.200 145.894 C 41.200 145.484,41.577 144.215,42.039 143.074 C 42.500 141.933,43.113 140.370,43.402 139.600 C 54.078 111.101,74.928 83.790,100.200 65.202 C 102.400 63.584,104.864 61.751,105.677 61.130 C 106.489 60.508,107.240 60.000,107.347 60.000 C 107.454 60.000,108.859 59.133,110.471 58.074 C 112.082 57.014,114.390 55.592,115.600 54.913 C 116.810 54.233,118.520 53.273,119.400 52.778 C 124.719 49.788,132.239 46.280,138.600 43.821 C 140.140 43.225,142.243 42.392,143.274 41.969 C 144.305 41.546,145.484 41.200,145.894 41.200 C 146.304 41.200,146.811 41.029,147.020 40.821 C 147.229 40.612,148.480 40.141,149.800 39.773 C 151.120 39.406,153.460 38.750,155.000 38.314 C 156.540 37.879,158.700 37.350,159.800 37.138 C 160.900 36.926,162.610 36.507,163.600 36.207 C 164.590 35.907,166.480 35.541,167.800 35.394 C 169.120 35.246,171.088 34.872,172.173 34.563 C 173.258 34.253,174.932 34.000,175.894 34.000 C 176.855 34.000,178.870 33.721,180.371 33.379 C 181.871 33.038,186.497 32.610,190.650 32.427 C 197.990 32.105,200.256 32.126,212.400 32.629 M82.585 151.352 C 69.803 153.898,69.605 171.962,82.320 175.530 L 85.241 176.350 88.320 175.544 C 91.390 174.742,91.811 174.508,94.331 172.212 C 99.876 167.159,98.546 156.538,91.883 152.682 C 90.373 151.808,89.414 151.537,86.000 151.022 C 85.450 150.938,83.913 151.087,82.585 151.352 M118.267 152.267 C 117.826 152.707,117.948 246.721,118.389 246.993 C 118.603 247.126,119.818 246.756,121.089 246.172 C 122.360 245.588,124.120 244.789,125.000 244.396 C 127.239 243.396,131.895 241.292,133.800 240.419 C 134.680 240.017,136.516 239.184,137.879 238.570 L 140.359 237.453 140.479 228.545 C 140.569 221.903,140.732 219.506,141.120 219.119 C 141.529 218.711,145.630 218.582,160.320 218.517 L 179.000 218.434 179.626 217.317 C 179.970 216.703,180.550 215.443,180.916 214.517 C 181.281 213.591,181.968 211.971,182.442 210.917 C 182.916 209.863,183.621 208.280,184.007 207.400 C 185.866 203.172,187.971 198.496,188.472 197.484 C 189.189 196.036,188.626 196.000,164.999 196.000 L 141.645 196.000 141.023 195.111 C 139.883 193.484,140.116 176.244,141.289 175.423 C 142.062 174.881,144.574 174.800,160.595 174.800 L 179.011 174.800 179.881 172.900 C 180.360 171.855,181.138 170.100,181.610 169.000 C 182.082 167.900,182.831 166.190,183.273 165.200 C 183.715 164.210,184.310 162.860,184.595 162.200 C 186.130 158.647,187.997 154.446,188.459 153.505 C 188.646 153.123,188.800 152.628,188.800 152.405 C 188.800 151.949,118.722 151.811,118.267 152.267 M203.473 152.260 C 203.038 152.695,203.143 247.518,203.579 247.787 C 203.842 247.949,255.175 248.135,263.951 248.005 C 264.144 248.002,264.707 247.055,265.202 245.900 C 265.697 244.745,266.604 242.720,267.218 241.400 C 267.832 240.080,268.793 237.893,269.355 236.540 C 269.917 235.188,271.012 232.742,271.788 231.106 C 272.565 229.470,273.200 227.944,273.200 227.715 C 273.200 227.486,273.470 227.074,273.800 226.800 C 275.674 225.245,275.375 225.223,250.633 225.109 C 237.561 225.049,226.716 224.850,226.533 224.667 C 226.350 224.483,226.110 208.103,226.000 188.267 L 225.800 152.200 214.773 152.094 C 208.708 152.035,203.623 152.110,203.473 152.260 M256.130 152.563 C 256.313 153.039,260.987 159.397,261.598 160.000 C 261.821 160.221,264.111 163.222,271.820 173.400 C 274.653 177.140,279.372 183.350,282.308 187.200 C 285.243 191.050,288.129 194.907,288.722 195.771 L 289.800 197.342 289.895 221.971 C 289.948 235.517,289.993 246.735,289.995 246.900 C 290.003 247.414,290.771 247.236,293.025 246.200 C 296.845 244.444,299.288 243.348,304.027 241.263 C 306.572 240.144,309.182 238.953,309.827 238.617 C 310.472 238.280,311.219 238.004,311.486 238.002 C 312.689 237.996,312.800 236.203,312.800 216.834 L 312.800 197.214 323.743 182.707 C 329.761 174.728,337.413 164.600,340.745 160.200 L 346.805 152.200 333.302 152.087 L 319.800 151.973 318.677 153.287 C 318.060 154.009,314.910 158.096,311.677 162.369 C 308.445 166.641,305.053 171.124,304.139 172.331 C 300.965 176.523,302.509 177.949,285.274 154.900 L 283.106 152.000 269.510 152.000 C 257.986 152.000,255.947 152.086,256.130 152.563 M73.933 195.199 C 73.444 196.665,74.059 248.400,74.566 248.400 C 74.871 248.400,76.713 247.671,78.660 246.781 C 80.607 245.890,82.560 244.999,83.000 244.800 C 83.440 244.601,85.393 243.710,87.340 242.819 C 89.287 241.929,90.997 241.199,91.140 241.197 C 91.283 241.195,92.570 240.609,94.000 239.894 L 96.600 238.594 96.703 216.697 L 96.807 194.800 85.437 194.800 C 78.223 194.800,74.018 194.946,73.933 195.199 " stroke="none" fill="#1b6bec" fill-rule="evenodd"></path><path id="path1" d="M188.040 33.226 C 185.092 33.412,182.140 33.752,181.480 33.982 C 180.820 34.212,179.269 34.400,178.032 34.400 C 176.796 34.400,174.485 34.760,172.897 35.200 C 171.309 35.640,169.243 36.000,168.305 36.000 C 167.367 36.000,165.653 36.360,164.496 36.800 C 163.338 37.240,161.594 37.600,160.619 37.600 C 159.645 37.600,158.749 37.759,158.630 37.952 C 158.415 38.300,157.736 38.509,154.600 39.191 C 152.352 39.681,150.518 40.204,148.200 41.017 C 140.576 43.692,140.506 43.720,132.800 47.034 C 129.830 48.312,126.050 50.065,124.400 50.929 C 122.750 51.794,120.755 52.828,119.967 53.228 C 119.178 53.627,117.050 54.865,115.237 55.977 C 113.424 57.090,111.856 58.000,111.753 58.000 C 111.564 58.000,108.002 60.402,103.337 63.673 C 84.799 76.675,67.084 95.924,56.287 114.800 C 55.847 115.570,55.157 116.740,54.755 117.400 C 51.203 123.226,46.857 132.595,42.438 143.953 C 41.977 145.138,41.600 146.329,41.600 146.600 C 41.600 146.871,41.260 147.972,40.844 149.047 C 40.428 150.121,39.876 151.810,39.616 152.800 C 39.357 153.790,38.797 155.704,38.372 157.053 C 37.947 158.401,37.600 160.120,37.600 160.873 C 37.600 161.625,37.450 162.411,37.267 162.620 C 36.760 163.200,36.000 166.141,36.000 167.527 C 36.000 168.206,35.723 169.805,35.383 171.080 C 35.044 172.356,34.595 175.020,34.385 177.000 C 34.174 178.980,33.804 181.950,33.562 183.600 C 32.965 187.663,32.968 212.033,33.565 216.400 C 33.821 218.270,34.198 221.330,34.402 223.200 C 34.606 225.070,35.049 227.644,35.386 228.920 C 35.724 230.195,36.000 231.794,36.000 232.473 C 36.000 233.859,36.760 236.800,37.267 237.380 C 37.450 237.589,37.600 238.375,37.600 239.127 C 37.600 239.880,37.947 241.599,38.372 242.947 C 38.797 244.296,39.357 246.210,39.616 247.200 C 39.876 248.190,40.428 249.879,40.844 250.953 C 41.260 252.028,41.600 253.129,41.600 253.400 C 41.600 253.671,41.945 254.772,42.367 255.847 C 42.788 256.921,43.805 259.510,44.626 261.600 C 46.638 266.724,50.638 275.396,52.651 279.000 C 53.019 279.660,53.474 280.515,53.661 280.900 C 54.075 281.755,54.420 282.472,55.538 284.800 C 56.013 285.790,56.402 286.904,56.401 287.276 C 56.400 287.648,56.546 288.043,56.725 288.154 C 57.216 288.457,60.400 298.678,60.400 299.952 C 60.400 300.384,60.779 302.326,61.243 304.268 C 62.492 309.502,62.484 324.171,61.230 329.290 C 60.038 334.153,59.997 337.043,61.109 337.822 C 61.578 338.149,62.272 338.729,62.653 339.109 C 63.494 339.948,66.406 339.910,71.800 338.987 C 76.875 338.120,85.516 337.811,89.600 338.352 C 97.521 339.401,100.781 339.953,103.800 340.758 C 108.154 341.918,110.924 342.829,111.380 343.249 C 111.589 343.442,112.104 343.600,112.526 343.600 C 112.947 343.600,113.946 343.929,114.746 344.331 C 115.545 344.734,117.100 345.472,118.200 345.972 C 119.300 346.472,120.650 347.134,121.200 347.442 C 122.521 348.183,128.732 351.193,132.000 352.677 C 134.240 353.694,136.091 354.491,139.800 356.038 C 141.037 356.554,145.307 358.046,146.200 358.275 C 146.640 358.387,147.900 358.806,149.000 359.205 C 150.100 359.605,151.810 360.140,152.800 360.394 C 153.790 360.648,155.704 361.203,157.053 361.628 C 158.401 362.053,160.120 362.400,160.873 362.400 C 161.625 362.400,162.411 362.550,162.620 362.733 C 163.200 363.240,166.141 364.000,167.527 364.000 C 168.206 364.000,169.805 364.285,171.080 364.633 C 172.356 364.981,174.930 365.415,176.800 365.599 C 178.670 365.782,181.730 366.159,183.600 366.435 C 188.240 367.120,211.804 367.123,216.400 366.439 C 218.270 366.160,221.330 365.773,223.200 365.579 C 225.070 365.384,227.410 365.027,228.400 364.785 C 229.390 364.543,231.280 364.197,232.600 364.017 C 234.936 363.699,235.748 363.491,237.400 362.786 C 237.840 362.599,238.920 362.364,239.800 362.264 C 240.680 362.164,242.750 361.692,244.400 361.214 C 246.050 360.736,248.368 360.084,249.552 359.764 C 250.735 359.445,251.905 359.053,252.152 358.894 C 252.398 358.735,253.320 358.400,254.200 358.149 C 256.042 357.624,258.078 356.917,259.800 356.206 C 260.460 355.933,261.990 355.309,263.200 354.818 C 266.643 353.423,276.171 348.919,279.200 347.254 C 279.530 347.073,280.230 346.699,280.755 346.425 C 282.800 345.354,284.645 344.274,285.662 343.553 C 286.246 343.139,286.849 342.800,287.003 342.800 C 287.392 342.800,298.033 335.499,301.199 333.061 C 313.616 323.495,323.602 313.511,333.065 301.199 C 335.517 298.009,342.800 287.388,342.800 287.003 C 342.800 286.849,343.139 286.246,343.553 285.662 C 344.495 284.335,345.714 282.208,347.621 278.572 C 348.436 277.017,349.290 275.397,349.520 274.972 C 349.749 274.548,350.504 272.940,351.198 271.400 C 351.891 269.860,352.789 267.880,353.193 267.000 C 353.597 266.120,354.324 264.410,354.809 263.200 C 355.294 261.990,355.839 260.706,356.020 260.346 C 356.428 259.536,359.743 249.583,360.332 247.400 C 360.569 246.520,361.132 244.592,361.582 243.116 C 362.032 241.640,362.404 240.020,362.410 239.516 C 362.415 239.012,362.775 237.537,363.210 236.238 C 363.644 234.939,364.000 233.283,364.000 232.557 C 364.000 231.832,364.282 230.195,364.627 228.920 C 364.972 227.644,365.414 225.070,365.609 223.200 C 365.804 221.330,366.187 218.270,366.460 216.400 C 366.775 214.240,366.956 208.258,366.956 200.000 C 366.956 191.742,366.775 185.760,366.460 183.600 C 366.187 181.730,365.804 178.670,365.609 176.800 C 365.414 174.930,364.972 172.356,364.627 171.080 C 364.282 169.805,364.000 168.167,364.000 167.440 C 364.000 166.183,363.540 164.344,362.790 162.600 C 362.600 162.160,362.364 161.080,362.264 160.200 C 362.164 159.320,361.692 157.250,361.214 155.600 C 360.736 153.950,360.084 151.632,359.764 150.448 C 359.445 149.265,359.053 148.095,358.894 147.848 C 358.735 147.602,358.397 146.680,358.141 145.800 C 357.603 143.945,356.542 140.956,356.011 139.800 C 355.808 139.360,355.255 138.010,354.781 136.800 C 354.307 135.590,353.502 133.700,352.991 132.600 C 352.480 131.500,351.587 129.520,351.007 128.200 C 350.426 126.880,349.751 125.440,349.507 125.000 C 349.262 124.560,348.401 122.940,347.592 121.400 C 345.617 117.641,344.458 115.613,343.553 114.338 C 343.139 113.754,342.800 113.151,342.800 112.997 C 342.800 112.843,341.095 110.223,339.011 107.175 C 319.210 78.212,292.782 56.857,261.600 44.624 C 259.510 43.804,256.921 42.788,255.847 42.367 C 254.772 41.945,253.671 41.600,253.400 41.600 C 253.129 41.600,252.028 41.260,250.953 40.844 C 249.879 40.428,248.190 39.876,247.200 39.616 C 246.210 39.357,244.296 38.797,242.947 38.372 C 241.599 37.947,239.931 37.600,239.242 37.600 C 238.553 37.600,237.677 37.442,237.295 37.249 C 235.972 36.581,233.738 36.000,232.491 36.000 C 231.802 36.000,230.195 35.725,228.920 35.388 C 227.644 35.051,224.980 34.595,223.000 34.373 C 221.020 34.152,218.140 33.805,216.600 33.602 C 212.561 33.070,194.324 32.830,188.040 33.226 M210.000 34.400 C 210.000 34.628,211.192 34.800,212.776 34.800 C 214.303 34.800,215.664 34.980,215.800 35.200 C 215.940 35.427,217.937 35.600,220.424 35.600 C 223.075 35.600,224.800 35.758,224.800 36.000 C 224.800 36.220,225.329 36.400,225.976 36.400 C 226.623 36.400,227.264 36.580,227.400 36.800 C 227.536 37.020,228.897 37.200,230.424 37.200 C 231.951 37.200,233.200 37.360,233.200 37.556 C 233.200 37.906,234.537 38.220,237.900 38.659 C 238.835 38.781,239.600 39.042,239.600 39.240 C 239.600 39.438,240.222 39.600,240.981 39.600 C 241.741 39.600,242.866 39.802,243.481 40.050 C 244.097 40.297,244.960 40.643,245.400 40.818 C 245.840 40.993,247.100 41.243,248.200 41.374 C 249.300 41.504,250.260 41.789,250.333 42.005 C 250.407 42.222,251.172 42.400,252.033 42.400 C 252.895 42.400,253.600 42.580,253.600 42.800 C 253.600 43.020,253.960 43.200,254.400 43.200 C 254.840 43.200,255.200 43.380,255.200 43.600 C 255.200 43.820,255.740 44.000,256.400 44.000 C 257.060 44.000,257.600 44.180,257.600 44.400 C 257.600 44.620,257.960 44.800,258.400 44.800 C 258.840 44.800,259.200 44.980,259.200 45.200 C 259.200 45.420,259.555 45.600,259.988 45.600 C 260.421 45.600,261.417 45.960,262.200 46.400 C 262.983 46.840,263.979 47.200,264.412 47.200 C 264.845 47.200,265.200 47.380,265.200 47.600 C 265.200 47.820,265.560 48.000,266.000 48.000 C 266.440 48.000,266.800 48.180,266.800 48.400 C 266.800 48.620,267.250 48.800,267.800 48.800 C 268.350 48.800,268.800 48.980,268.800 49.200 C 268.800 49.420,269.250 49.600,269.800 49.600 C 270.350 49.600,270.800 49.780,270.800 50.000 C 270.800 50.220,271.160 50.400,271.600 50.400 C 272.040 50.400,272.400 50.580,272.400 50.800 C 272.400 51.020,272.760 51.200,273.200 51.200 C 273.640 51.200,274.000 51.380,274.000 51.600 C 274.000 51.820,274.360 52.000,274.800 52.000 C 275.240 52.000,275.600 52.180,275.600 52.400 C 275.600 52.620,275.878 52.800,276.217 52.800 C 276.556 52.800,277.220 53.160,277.692 53.600 C 278.164 54.040,278.877 54.400,279.275 54.400 C 279.674 54.400,280.000 54.535,280.000 54.701 C 280.000 54.866,280.855 55.449,281.900 55.996 C 282.945 56.543,284.410 57.398,285.156 57.895 C 285.902 58.393,286.847 58.800,287.256 58.800 C 287.665 58.800,288.000 58.980,288.000 59.200 C 288.000 59.420,288.320 59.600,288.712 59.600 C 289.103 59.600,289.683 59.960,290.000 60.400 C 290.317 60.840,290.825 61.200,291.128 61.200 C 291.431 61.200,292.183 61.740,292.800 62.400 C 293.417 63.060,294.119 63.600,294.360 63.600 C 294.602 63.600,294.800 63.738,294.800 63.906 C 294.800 64.074,295.520 64.656,296.400 65.200 C 297.280 65.744,298.000 66.326,298.000 66.494 C 298.000 66.662,298.248 66.800,298.552 66.800 C 298.855 66.800,299.845 67.520,300.752 68.400 C 301.659 69.280,302.587 70.000,302.814 70.000 C 303.041 70.000,303.856 70.629,304.625 71.399 C 305.394 72.168,306.513 73.111,307.112 73.495 C 308.796 74.576,311.812 77.200,311.370 77.200 C 311.165 77.200,313.451 79.473,316.254 82.056 C 318.507 84.132,325.600 91.502,325.600 91.767 C 325.600 91.915,326.005 92.470,326.500 93.001 C 326.995 93.531,327.985 94.588,328.700 95.348 C 329.415 96.109,330.000 96.927,330.000 97.165 C 330.000 97.404,330.720 98.341,331.600 99.248 C 332.480 100.155,333.200 101.145,333.200 101.448 C 333.200 101.752,333.350 102.000,333.532 102.000 C 333.715 102.000,334.120 102.479,334.432 103.063 C 334.745 103.648,335.495 104.657,336.100 105.306 C 336.705 105.954,337.200 106.696,337.200 106.954 C 337.200 107.212,337.560 107.683,338.000 108.000 C 338.440 108.317,338.800 108.807,338.800 109.088 C 338.800 109.370,338.980 109.600,339.200 109.600 C 339.420 109.600,339.600 109.960,339.600 110.400 C 339.600 110.840,339.780 111.200,340.000 111.200 C 340.220 111.200,340.400 111.520,340.400 111.912 C 340.400 112.303,340.760 112.883,341.200 113.200 C 341.640 113.517,342.000 114.057,342.000 114.400 C 342.000 114.743,342.360 115.283,342.800 115.600 C 343.240 115.917,343.600 116.486,343.600 116.865 C 343.600 117.243,343.783 117.666,344.007 117.804 C 344.230 117.942,344.322 118.202,344.211 118.382 C 344.100 118.562,344.251 118.911,344.548 119.157 C 344.844 119.402,345.778 120.998,346.623 122.702 C 347.469 124.406,348.277 125.890,348.419 126.000 C 348.561 126.110,348.795 126.682,348.939 127.272 C 349.083 127.862,349.471 128.614,349.801 128.943 C 350.130 129.273,350.400 129.929,350.400 130.400 C 350.400 130.871,350.679 131.536,351.020 131.877 C 351.360 132.218,351.743 133.015,351.870 133.648 C 351.996 134.282,352.218 134.800,352.363 134.800 C 352.507 134.800,352.865 135.610,353.157 136.600 C 353.449 137.590,353.848 138.400,354.044 138.400 C 354.240 138.400,354.400 138.940,354.400 139.600 C 354.400 140.260,354.580 140.800,354.800 140.800 C 355.020 140.800,355.200 141.160,355.200 141.600 C 355.200 142.040,355.380 142.400,355.600 142.400 C 355.820 142.400,356.000 142.940,356.000 143.600 C 356.000 144.260,356.180 144.800,356.400 144.800 C 356.620 144.800,356.800 145.160,356.800 145.600 C 356.800 146.040,356.980 146.400,357.200 146.400 C 357.420 146.400,357.600 147.120,357.600 148.000 C 357.600 148.880,357.780 149.600,358.000 149.600 C 358.220 149.600,358.400 149.960,358.400 150.400 C 358.400 150.840,358.580 151.200,358.800 151.200 C 359.020 151.200,359.200 151.899,359.200 152.754 C 359.200 153.609,359.469 154.824,359.798 155.454 C 360.126 156.084,360.396 157.354,360.398 158.276 C 360.399 159.198,360.561 160.052,360.758 160.174 C 360.955 160.295,361.206 161.071,361.317 161.897 C 361.428 162.724,361.737 164.120,362.004 165.000 C 362.272 165.880,362.641 167.860,362.826 169.400 C 363.341 173.704,363.655 175.200,364.044 175.200 C 364.240 175.200,364.400 177.169,364.400 179.576 C 364.400 182.063,364.573 184.060,364.800 184.200 C 365.020 184.336,365.200 185.697,365.200 187.224 C 365.200 188.808,365.372 190.000,365.600 190.000 C 365.856 190.000,366.000 193.600,366.000 200.000 C 366.000 206.400,365.856 210.000,365.600 210.000 C 365.372 210.000,365.200 211.192,365.200 212.776 C 365.200 214.303,365.042 215.651,364.848 215.770 C 364.654 215.890,364.465 217.921,364.427 220.283 C 364.389 222.646,364.213 224.673,364.035 224.789 C 363.633 225.050,363.241 226.950,362.834 230.600 C 362.662 232.140,362.227 234.300,361.865 235.400 C 361.504 236.500,361.207 237.884,361.204 238.476 C 361.202 239.068,361.041 239.651,360.847 239.771 C 360.653 239.891,360.369 241.161,360.215 242.594 C 360.062 244.027,359.771 245.200,359.568 245.200 C 359.366 245.200,359.200 246.010,359.200 247.000 C 359.200 247.990,359.020 248.800,358.800 248.800 C 358.580 248.800,358.400 249.160,358.400 249.600 C 358.400 250.040,358.220 250.400,358.000 250.400 C 357.780 250.400,357.600 251.120,357.600 252.000 C 357.600 252.880,357.420 253.600,357.200 253.600 C 356.980 253.600,356.800 253.960,356.800 254.400 C 356.800 254.840,356.620 255.200,356.400 255.200 C 356.180 255.200,356.000 255.740,356.000 256.400 C 356.000 257.060,355.820 257.600,355.600 257.600 C 355.380 257.600,355.200 257.960,355.200 258.400 C 355.200 258.840,355.020 259.200,354.800 259.200 C 354.580 259.200,354.400 259.740,354.400 260.400 C 354.400 261.060,354.220 261.600,354.000 261.600 C 353.780 261.600,353.600 261.960,353.600 262.400 C 353.600 262.840,353.420 263.200,353.200 263.200 C 352.980 263.200,352.800 263.650,352.800 264.200 C 352.800 264.750,352.620 265.200,352.400 265.200 C 352.180 265.200,352.000 265.465,352.000 265.788 C 352.000 266.111,351.640 267.017,351.200 267.800 C 350.760 268.583,350.400 269.502,350.400 269.841 C 350.400 270.180,350.130 270.727,349.801 271.057 C 349.471 271.386,349.081 272.137,348.933 272.724 C 348.786 273.311,348.426 274.031,348.133 274.324 C 347.841 274.617,347.482 275.332,347.336 275.915 C 347.189 276.497,346.739 277.328,346.335 277.762 C 345.931 278.196,345.600 278.843,345.600 279.200 C 345.600 279.557,345.247 280.228,344.816 280.690 C 344.385 281.153,343.906 282.042,343.752 282.666 C 343.598 283.290,343.141 284.091,342.736 284.447 C 342.331 284.803,342.000 285.348,342.000 285.659 C 342.000 285.969,341.640 286.483,341.200 286.800 C 340.760 287.117,340.400 287.697,340.400 288.088 C 340.400 288.480,340.220 288.800,340.000 288.800 C 339.780 288.800,339.600 289.160,339.600 289.600 C 339.600 290.040,339.420 290.400,339.200 290.400 C 338.980 290.400,338.800 290.688,338.800 291.040 C 338.800 291.391,338.260 292.183,337.600 292.800 C 336.940 293.417,336.400 294.119,336.400 294.360 C 336.400 294.602,336.220 294.800,336.000 294.800 C 335.780 294.800,335.600 294.978,335.600 295.195 C 335.600 295.413,335.285 295.968,334.900 296.429 C 334.515 296.890,333.795 297.747,333.300 298.334 C 332.806 298.920,332.401 299.537,332.400 299.704 C 332.400 299.871,331.860 300.572,331.200 301.263 C 330.540 301.954,330.000 302.677,330.000 302.870 C 330.000 303.202,328.494 305.021,326.500 307.099 C 326.005 307.614,325.600 308.258,325.600 308.530 C 325.600 308.801,325.219 309.288,324.752 309.612 C 323.942 310.174,311.281 322.773,309.200 325.088 C 308.650 325.699,307.637 326.512,306.949 326.894 C 306.261 327.275,305.117 328.130,304.407 328.794 C 303.697 329.457,302.937 330.000,302.718 330.000 C 302.500 330.000,301.817 330.540,301.200 331.200 C 300.583 331.860,299.926 332.400,299.740 332.400 C 299.553 332.401,298.920 332.806,298.334 333.300 C 297.747 333.795,296.890 334.515,296.429 334.900 C 295.968 335.285,295.413 335.600,295.195 335.600 C 294.978 335.600,294.800 335.780,294.800 336.000 C 294.800 336.220,294.596 336.400,294.347 336.400 C 294.098 336.400,293.603 336.716,293.247 337.103 C 292.891 337.489,292.105 338.060,291.500 338.370 C 290.895 338.681,290.400 339.085,290.400 339.268 C 290.400 339.450,290.040 339.600,289.600 339.600 C 289.160 339.600,288.800 339.780,288.800 340.000 C 288.800 340.220,288.564 340.400,288.275 340.400 C 287.987 340.400,287.364 340.760,286.892 341.200 C 286.420 341.640,285.822 342.000,285.564 342.000 C 285.305 342.000,284.803 342.331,284.447 342.736 C 284.091 343.141,283.290 343.598,282.666 343.752 C 282.042 343.906,281.153 344.385,280.690 344.816 C 280.228 345.247,279.557 345.600,279.200 345.600 C 278.843 345.600,278.164 345.960,277.692 346.400 C 277.220 346.840,276.500 347.200,276.092 347.200 C 275.684 347.200,274.964 347.560,274.492 348.000 C 274.020 348.440,273.356 348.800,273.017 348.800 C 272.678 348.800,272.400 348.980,272.400 349.200 C 272.400 349.420,272.040 349.600,271.600 349.600 C 271.160 349.600,270.800 349.780,270.800 350.000 C 270.800 350.220,270.350 350.400,269.800 350.400 C 269.250 350.400,268.800 350.580,268.800 350.800 C 268.800 351.020,268.451 351.200,268.024 351.200 C 267.597 351.200,267.136 351.380,267.000 351.600 C 266.864 351.820,266.403 352.000,265.976 352.000 C 265.549 352.000,265.200 352.180,265.200 352.400 C 265.200 352.620,264.876 352.800,264.480 352.800 C 263.586 352.800,261.607 353.694,261.603 354.100 C 261.601 354.265,261.060 354.400,260.400 354.400 C 259.740 354.400,259.200 354.580,259.200 354.800 C 259.200 355.020,258.840 355.200,258.400 355.200 C 257.960 355.200,257.600 355.380,257.600 355.600 C 257.600 355.820,257.060 356.000,256.400 356.000 C 255.740 356.000,255.200 356.180,255.200 356.400 C 255.200 356.620,254.840 356.800,254.400 356.800 C 253.960 356.800,253.600 356.980,253.600 357.200 C 253.600 357.420,252.880 357.600,252.000 357.600 C 251.120 357.600,250.400 357.780,250.400 358.000 C 250.400 358.220,250.040 358.400,249.600 358.400 C 249.160 358.400,248.800 358.580,248.800 358.800 C 248.800 359.020,248.001 359.200,247.024 359.200 C 246.047 359.200,245.144 359.367,245.017 359.572 C 244.891 359.777,243.755 360.069,242.494 360.221 C 241.232 360.374,240.020 360.636,239.800 360.804 C 239.580 360.972,238.680 361.202,237.800 361.314 C 236.920 361.426,235.480 361.736,234.600 362.002 C 233.720 362.269,231.830 362.631,230.400 362.808 C 228.970 362.985,226.990 363.351,226.000 363.620 C 225.010 363.890,222.400 364.180,220.200 364.265 C 218.000 364.350,215.840 364.588,215.400 364.793 C 213.530 365.666,191.439 366.399,190.655 365.615 C 190.427 365.387,189.052 365.200,187.600 365.200 C 186.148 365.200,184.789 365.031,184.580 364.825 C 184.371 364.619,182.310 364.374,180.000 364.281 C 177.690 364.188,174.990 363.889,174.000 363.615 C 173.010 363.342,171.210 363.038,170.000 362.941 C 168.790 362.844,167.440 362.606,167.000 362.412 C 166.041 361.990,164.373 361.612,162.200 361.323 C 161.320 361.206,160.420 360.972,160.200 360.804 C 159.980 360.636,158.765 360.374,157.500 360.221 C 156.235 360.068,155.200 359.775,155.200 359.571 C 155.200 359.367,154.300 359.200,153.200 359.200 C 152.100 359.200,151.200 359.020,151.200 358.800 C 151.200 358.580,150.840 358.400,150.400 358.400 C 149.960 358.400,149.600 358.220,149.600 358.000 C 149.600 357.780,148.880 357.600,148.000 357.600 C 147.120 357.600,146.400 357.420,146.400 357.200 C 146.400 356.980,146.040 356.800,145.600 356.800 C 145.160 356.800,144.800 356.620,144.800 356.400 C 144.800 356.180,144.260 356.000,143.600 356.000 C 142.940 356.000,142.399 355.865,142.397 355.700 C 142.393 355.299,140.419 354.400,139.544 354.400 C 139.161 354.400,138.736 354.220,138.600 354.000 C 138.464 353.780,138.003 353.600,137.576 353.600 C 137.149 353.600,136.800 353.420,136.800 353.200 C 136.800 352.980,136.350 352.800,135.800 352.800 C 135.250 352.800,134.800 352.620,134.800 352.400 C 134.800 352.180,134.485 351.999,134.100 351.999 C 133.715 351.998,132.811 351.638,132.090 351.199 C 131.370 350.759,130.425 350.400,129.990 350.400 C 129.556 350.400,129.200 350.220,129.200 350.000 C 129.200 349.780,128.840 349.600,128.400 349.600 C 127.960 349.600,127.600 349.420,127.600 349.200 C 127.600 348.980,127.322 348.800,126.983 348.800 C 126.644 348.800,125.980 348.440,125.508 348.000 C 125.036 347.560,124.396 347.200,124.088 347.200 C 123.779 347.200,123.069 346.840,122.509 346.400 C 121.950 345.960,121.230 345.600,120.909 345.600 C 120.589 345.600,119.887 345.255,119.351 344.833 C 118.815 344.411,117.662 343.946,116.788 343.798 C 115.915 343.650,115.200 343.366,115.200 343.165 C 115.200 342.964,114.660 342.800,114.000 342.800 C 113.340 342.800,112.800 342.620,112.800 342.400 C 112.800 342.180,112.260 342.000,111.600 342.000 C 110.940 342.000,110.400 341.820,110.400 341.600 C 110.400 341.380,110.040 341.200,109.600 341.200 C 109.160 341.200,108.800 341.020,108.800 340.800 C 108.800 340.580,108.181 340.400,107.424 340.400 C 106.667 340.400,105.936 340.220,105.800 340.000 C 105.664 339.780,105.113 339.600,104.576 339.600 C 104.039 339.600,103.600 339.420,103.600 339.200 C 103.600 338.978,102.533 338.800,101.200 338.800 C 99.867 338.800,98.800 338.622,98.800 338.400 C 98.800 338.180,98.260 338.000,97.600 338.000 C 96.940 338.000,96.400 337.820,96.400 337.600 C 96.400 337.341,91.733 337.200,83.200 337.200 C 74.667 337.200,70.000 337.341,70.000 337.600 C 70.000 337.820,69.460 338.000,68.800 338.000 C 68.140 338.000,67.600 338.180,67.600 338.400 C 67.600 338.622,66.533 338.800,65.200 338.800 C 63.067 338.800,62.800 338.711,62.800 338.000 C 62.800 337.467,62.533 337.200,62.000 337.200 C 61.307 337.200,61.200 336.933,61.200 335.200 C 61.200 334.100,61.380 333.200,61.600 333.200 C 61.820 333.200,62.000 332.851,62.000 332.424 C 62.000 331.997,62.180 331.536,62.400 331.400 C 62.620 331.264,62.800 329.644,62.800 327.800 C 62.800 325.956,62.980 324.336,63.200 324.200 C 63.742 323.865,63.742 310.000,63.200 310.000 C 62.960 310.000,62.800 308.400,62.800 306.000 C 62.800 303.600,62.640 302.000,62.400 302.000 C 62.180 302.000,62.000 301.561,62.000 301.024 C 62.000 300.487,61.820 299.936,61.600 299.800 C 61.380 299.664,61.200 298.764,61.200 297.800 C 61.200 296.836,61.020 295.936,60.800 295.800 C 60.580 295.664,60.400 295.203,60.400 294.776 C 60.400 294.349,60.220 294.000,60.000 294.000 C 59.780 294.000,59.600 293.291,59.600 292.424 C 59.600 291.557,59.440 290.749,59.245 290.628 C 59.050 290.507,58.765 289.732,58.611 288.904 C 58.457 288.077,57.806 286.323,57.165 285.006 C 56.524 283.689,55.996 282.429,55.991 282.206 C 55.986 281.983,55.630 281.350,55.200 280.800 C 54.770 280.250,54.414 279.519,54.409 279.175 C 54.404 278.832,54.069 278.196,53.665 277.762 C 53.261 277.328,52.811 276.497,52.664 275.915 C 52.518 275.332,52.129 274.586,51.799 274.257 C 51.470 273.927,51.200 273.318,51.200 272.904 C 51.200 272.490,50.840 271.764,50.400 271.292 C 49.960 270.820,49.600 269.976,49.600 269.417 C 49.600 268.858,49.420 268.400,49.200 268.400 C 48.980 268.400,48.800 268.130,48.800 267.800 C 48.800 267.470,48.620 267.200,48.400 267.200 C 48.180 267.200,48.000 266.851,48.000 266.424 C 48.000 265.997,47.820 265.536,47.600 265.400 C 47.380 265.264,47.200 264.713,47.200 264.176 C 47.200 263.639,47.020 263.200,46.800 263.200 C 46.580 263.200,46.400 262.851,46.400 262.424 C 46.400 261.997,46.220 261.536,46.000 261.400 C 45.780 261.264,45.600 260.713,45.600 260.176 C 45.600 259.639,45.420 259.200,45.200 259.200 C 44.980 259.200,44.800 258.840,44.800 258.400 C 44.800 257.960,44.620 257.600,44.400 257.600 C 44.180 257.600,44.000 257.060,44.000 256.400 C 44.000 255.740,43.820 255.200,43.600 255.200 C 43.380 255.200,43.200 254.840,43.200 254.400 C 43.200 253.960,43.020 253.600,42.800 253.600 C 42.580 253.600,42.400 252.880,42.400 252.000 C 42.400 251.120,42.236 250.400,42.035 250.400 C 41.834 250.400,41.556 249.635,41.416 248.700 C 41.043 246.215,40.272 243.600,39.913 243.600 C 39.741 243.600,39.600 242.826,39.600 241.880 C 39.600 240.934,39.438 239.989,39.241 239.780 C 39.044 239.571,38.780 238.680,38.656 237.800 C 38.166 234.322,37.898 233.200,37.556 233.200 C 37.360 233.200,37.200 231.951,37.200 230.424 C 37.200 228.897,37.020 227.536,36.800 227.400 C 36.580 227.264,36.400 226.623,36.400 225.976 C 36.400 225.329,36.220 224.800,36.000 224.800 C 35.758 224.800,35.600 223.075,35.600 220.424 C 35.600 217.937,35.427 215.940,35.200 215.800 C 34.980 215.664,34.800 214.303,34.800 212.776 C 34.800 211.192,34.628 210.000,34.400 210.000 C 34.144 210.000,34.000 206.400,34.000 200.000 C 34.000 193.600,34.144 190.000,34.400 190.000 C 34.628 190.000,34.800 188.808,34.800 187.224 C 34.800 185.697,34.980 184.336,35.200 184.200 C 35.427 184.060,35.600 182.063,35.600 179.576 C 35.600 176.925,35.758 175.200,36.000 175.200 C 36.220 175.200,36.400 174.671,36.400 174.024 C 36.400 173.377,36.580 172.736,36.800 172.600 C 37.020 172.464,37.200 171.103,37.200 169.576 C 37.200 168.049,37.360 166.800,37.556 166.800 C 37.906 166.800,38.220 165.463,38.659 162.100 C 38.781 161.165,39.042 160.400,39.240 160.400 C 39.438 160.400,39.600 159.626,39.600 158.680 C 39.600 157.734,39.743 156.789,39.918 156.580 C 40.407 155.996,41.098 153.608,41.388 151.500 C 41.532 150.455,41.818 149.600,42.025 149.600 C 42.231 149.600,42.400 148.880,42.400 148.000 C 42.400 147.120,42.580 146.400,42.800 146.400 C 43.020 146.400,43.200 146.040,43.200 145.600 C 43.200 145.160,43.380 144.800,43.600 144.800 C 43.820 144.800,44.004 144.305,44.009 143.700 C 44.014 143.095,44.370 142.150,44.800 141.600 C 45.230 141.050,45.586 140.290,45.591 139.912 C 45.596 139.534,45.960 138.583,46.400 137.800 C 46.840 137.017,47.200 136.021,47.200 135.588 C 47.200 135.155,47.380 134.800,47.600 134.800 C 47.820 134.800,48.000 134.566,48.000 134.280 C 48.000 133.544,48.941 131.607,49.300 131.603 C 49.465 131.601,49.600 131.142,49.600 130.583 C 49.600 130.024,49.960 129.180,50.400 128.708 C 50.840 128.236,51.200 127.433,51.200 126.925 C 51.200 126.416,51.350 126.000,51.532 126.000 C 51.874 126.000,51.969 125.829,53.818 121.892 C 54.414 120.623,55.066 119.483,55.268 119.358 C 55.469 119.234,55.916 118.427,56.260 117.566 C 56.605 116.705,57.020 116.000,57.183 116.000 C 57.345 116.000,57.803 115.280,58.200 114.400 C 58.597 113.520,59.074 112.800,59.261 112.800 C 59.447 112.800,59.600 112.566,59.600 112.280 C 59.600 111.544,60.541 109.607,60.900 109.603 C 61.065 109.601,61.200 109.370,61.200 109.088 C 61.200 108.807,61.560 108.317,62.000 108.000 C 62.440 107.683,62.800 107.175,62.800 106.872 C 62.800 106.569,63.340 105.817,64.000 105.200 C 64.660 104.583,65.200 103.831,65.200 103.528 C 65.200 103.225,65.560 102.717,66.000 102.400 C 66.440 102.083,66.800 101.615,66.800 101.360 C 66.800 101.105,67.520 100.155,68.400 99.248 C 69.280 98.341,70.000 97.413,70.000 97.186 C 70.000 96.959,70.585 96.164,71.300 95.420 C 72.015 94.675,73.140 93.390,73.800 92.564 C 74.460 91.738,76.485 89.559,78.300 87.722 C 80.115 85.884,81.600 84.309,81.600 84.221 C 81.600 84.023,84.008 81.600,84.205 81.600 C 84.285 81.600,86.172 79.800,88.400 77.600 C 90.628 75.400,92.587 73.600,92.754 73.600 C 92.920 73.600,93.902 72.790,94.935 71.800 C 95.969 70.810,96.953 70.000,97.123 70.000 C 97.293 70.000,98.228 69.280,99.200 68.400 C 100.172 67.520,101.200 66.800,101.484 66.800 C 101.768 66.800,102.000 66.620,102.000 66.400 C 102.000 66.180,102.270 66.000,102.600 66.000 C 102.930 66.000,103.200 65.820,103.200 65.600 C 103.200 65.380,103.430 65.200,103.712 65.200 C 103.993 65.200,104.483 64.840,104.800 64.400 C 105.117 63.960,105.607 63.600,105.888 63.600 C 106.170 63.600,106.400 63.420,106.400 63.200 C 106.400 62.980,106.630 62.800,106.912 62.800 C 107.193 62.800,107.683 62.440,108.000 62.000 C 108.317 61.560,108.767 61.200,109.000 61.200 C 109.233 61.200,109.683 60.840,110.000 60.400 C 110.317 59.960,110.897 59.600,111.288 59.600 C 111.680 59.600,112.000 59.420,112.000 59.200 C 112.000 58.980,112.335 58.800,112.744 58.800 C 113.153 58.800,114.098 58.389,114.844 57.887 C 115.590 57.385,116.850 56.668,117.645 56.294 C 118.440 55.921,119.317 55.341,119.594 55.007 C 119.871 54.673,120.524 54.400,121.046 54.400 C 121.567 54.400,122.218 54.040,122.493 53.600 C 122.768 53.160,123.183 52.800,123.416 52.800 C 124.077 52.800,125.993 51.835,125.997 51.500 C 125.999 51.335,126.360 51.200,126.800 51.200 C 127.240 51.200,127.600 51.020,127.600 50.800 C 127.600 50.580,127.960 50.400,128.400 50.400 C 128.840 50.400,129.200 50.220,129.200 50.000 C 129.200 49.780,129.639 49.600,130.176 49.600 C 130.713 49.600,131.264 49.420,131.400 49.200 C 131.536 48.980,131.997 48.800,132.424 48.800 C 132.851 48.800,133.200 48.620,133.200 48.400 C 133.200 48.180,133.560 48.000,134.000 48.000 C 134.440 48.000,134.800 47.820,134.800 47.600 C 134.800 47.380,135.155 47.200,135.588 47.200 C 136.021 47.200,137.017 46.840,137.800 46.400 C 138.583 45.960,139.534 45.596,139.912 45.591 C 140.290 45.586,141.050 45.230,141.600 44.800 C 142.150 44.370,143.095 44.014,143.700 44.009 C 144.305 44.004,144.800 43.820,144.800 43.600 C 144.800 43.380,145.160 43.200,145.600 43.200 C 146.040 43.200,146.400 43.020,146.400 42.800 C 146.400 42.580,147.105 42.400,147.967 42.400 C 148.828 42.400,149.593 42.222,149.667 42.005 C 149.740 41.789,150.700 41.504,151.800 41.374 C 152.900 41.243,154.160 40.993,154.600 40.818 C 155.040 40.643,155.903 40.297,156.519 40.050 C 157.134 39.802,158.259 39.600,159.019 39.600 C 159.778 39.600,160.400 39.420,160.400 39.200 C 160.400 38.980,161.027 38.800,161.794 38.800 C 163.496 38.800,166.800 37.953,166.800 37.517 C 166.800 37.343,168.229 37.200,169.976 37.200 C 171.723 37.200,173.264 37.020,173.400 36.800 C 173.536 36.580,173.997 36.400,174.424 36.400 C 174.851 36.400,175.200 36.220,175.200 36.000 C 175.200 35.758,176.925 35.600,179.576 35.600 C 182.063 35.600,184.060 35.427,184.200 35.200 C 184.336 34.980,185.697 34.800,187.224 34.800 C 188.808 34.800,190.000 34.628,190.000 34.400 C 190.000 34.144,193.600 34.000,200.000 34.000 C 206.400 34.000,210.000 34.144,210.000 34.400 M81.200 149.200 C 81.200 149.420,80.958 149.600,80.661 149.600 C 79.798 149.600,77.561 150.837,77.328 151.444 C 77.210 151.750,76.855 152.000,76.539 152.000 C 75.817 152.000,74.000 153.784,74.000 154.494 C 74.000 154.785,73.640 155.283,73.200 155.600 C 72.760 155.917,72.400 156.497,72.400 156.888 C 72.400 157.280,72.220 157.600,72.000 157.600 C 71.780 157.600,71.600 157.960,71.600 158.400 C 71.600 158.840,71.420 159.200,71.200 159.200 C 70.959 159.200,70.800 160.867,70.800 163.400 C 70.800 165.933,70.959 167.600,71.200 167.600 C 71.420 167.600,71.600 167.960,71.600 168.400 C 71.600 168.840,71.780 169.200,72.000 169.200 C 72.220 169.200,72.400 169.630,72.400 170.157 C 72.400 170.988,74.739 173.720,76.889 175.400 C 79.408 177.368,90.400 178.832,90.400 177.200 C 90.400 176.980,90.670 176.800,91.000 176.800 C 91.330 176.800,91.600 176.620,91.600 176.400 C 91.600 176.180,91.960 176.000,92.400 176.000 C 92.840 176.000,93.200 175.832,93.200 175.627 C 93.200 175.422,93.604 175.126,94.097 174.969 C 95.076 174.658,97.200 172.807,97.200 172.264 C 97.200 172.078,97.560 171.469,98.000 170.909 C 98.440 170.350,98.800 169.556,98.800 169.146 C 98.800 168.736,98.980 168.400,99.200 168.400 C 99.420 168.400,99.600 168.051,99.600 167.624 C 99.600 167.197,99.780 166.736,100.000 166.600 C 100.220 166.464,100.400 165.103,100.400 163.576 C 100.400 161.992,100.228 160.800,100.000 160.800 C 99.780 160.800,99.600 160.440,99.600 160.000 C 99.600 159.560,99.420 159.200,99.200 159.200 C 98.980 159.200,98.800 158.660,98.800 158.000 C 98.800 157.340,98.620 156.800,98.400 156.800 C 98.180 156.800,98.000 156.526,98.000 156.191 C 98.000 155.418,93.810 151.200,93.042 151.200 C 92.726 151.200,92.407 151.065,92.333 150.900 C 91.623 149.302,81.200 147.711,81.200 149.200 M88.447 150.569 C 99.689 153.981,102.255 167.168,93.044 174.193 C 85.014 180.319,73.061 174.702,72.106 164.354 C 71.324 155.881,80.486 148.153,88.447 150.569 M115.905 199.100 C 115.787 253.908,115.666 249.600,117.318 249.600 C 118.737 249.600,121.200 248.788,121.200 248.320 C 121.200 248.144,121.453 248.000,121.762 248.000 C 122.428 248.000,125.741 246.332,125.933 245.900 C 126.007 245.735,126.592 245.600,127.233 245.600 C 127.875 245.600,128.401 245.465,128.403 245.300 C 128.407 244.941,130.344 244.000,131.080 244.000 C 131.366 244.000,131.600 243.820,131.600 243.600 C 131.600 243.380,131.960 243.200,132.400 243.200 C 132.840 243.200,133.200 243.020,133.200 242.800 C 133.200 242.580,133.663 242.400,134.229 242.400 C 134.794 242.400,135.527 242.130,135.857 241.800 C 136.187 241.470,136.821 241.200,137.265 241.200 C 137.710 241.200,138.531 240.840,139.091 240.400 C 139.650 239.960,140.379 239.600,140.710 239.600 C 142.170 239.600,142.374 238.438,142.387 230.071 C 142.397 223.573,142.515 221.828,142.971 221.371 C 143.450 220.893,146.482 220.800,161.590 220.800 L 179.636 220.800 180.618 219.818 C 181.158 219.278,181.600 218.558,181.600 218.218 C 181.600 217.878,181.780 217.600,182.000 217.600 C 182.220 217.600,182.400 217.060,182.400 216.400 C 182.400 215.740,182.580 215.200,182.800 215.200 C 183.020 215.200,183.200 214.840,183.200 214.400 C 183.200 213.960,183.380 213.600,183.600 213.600 C 183.820 213.600,184.000 213.251,184.000 212.824 C 184.000 212.397,184.180 211.936,184.400 211.800 C 184.620 211.664,184.800 211.113,184.800 210.576 C 184.800 210.039,184.936 209.600,185.102 209.600 C 185.269 209.600,185.629 209.060,185.902 208.400 C 186.176 207.740,186.624 206.660,186.898 206.000 C 187.171 205.340,187.531 204.800,187.698 204.800 C 187.864 204.800,188.004 204.395,188.009 203.900 C 188.014 203.405,188.370 202.550,188.800 202.000 C 189.230 201.450,189.586 200.587,189.591 200.083 C 189.596 199.579,189.960 198.780,190.400 198.308 C 191.480 197.148,191.496 194.587,190.426 194.014 C 189.918 193.742,181.548 193.600,166.026 193.600 L 142.400 193.600 142.400 185.200 L 142.400 176.800 161.029 176.800 C 180.290 176.800,180.800 176.759,180.800 175.229 C 180.800 174.993,180.980 174.800,181.200 174.800 C 181.420 174.800,181.600 174.530,181.600 174.200 C 181.600 173.870,181.780 173.600,182.000 173.600 C 182.220 173.600,182.400 173.150,182.400 172.600 C 182.400 172.050,182.580 171.600,182.800 171.600 C 183.020 171.600,183.200 171.240,183.200 170.800 C 183.200 170.360,183.380 170.000,183.600 170.000 C 183.820 170.000,184.000 169.651,184.000 169.224 C 184.000 168.797,184.180 168.336,184.400 168.200 C 184.620 168.064,184.800 167.513,184.800 166.976 C 184.800 166.439,184.980 166.000,185.200 166.000 C 185.420 166.000,185.600 165.640,185.600 165.200 C 185.600 164.760,185.780 164.400,186.000 164.400 C 186.220 164.400,186.400 163.942,186.400 163.383 C 186.400 162.824,186.760 161.980,187.200 161.508 C 187.640 161.036,188.000 160.233,188.000 159.725 C 188.000 159.216,188.151 158.800,188.336 158.800 C 188.521 158.800,188.914 158.035,189.211 157.100 C 189.507 156.165,190.076 154.922,190.475 154.338 C 191.221 153.246,191.382 152.141,190.957 151.033 C 190.738 150.462,187.054 150.400,153.362 150.400 L 116.009 150.400 115.905 199.100 M201.200 200.000 L 201.200 249.600 233.456 249.600 C 268.904 249.600,266.753 249.748,266.787 247.300 C 266.794 246.805,266.980 246.400,267.200 246.400 C 267.420 246.400,267.600 246.040,267.600 245.600 C 267.600 245.160,267.780 244.800,268.000 244.800 C 268.220 244.800,268.400 244.300,268.400 243.688 C 268.400 243.035,268.730 242.339,269.200 242.000 C 269.640 241.683,270.000 241.129,270.000 240.770 C 270.000 240.410,270.719 238.695,271.598 236.958 C 272.477 235.221,273.197 233.485,273.198 233.100 C 273.199 232.715,273.336 232.400,273.502 232.400 C 273.793 232.400,274.610 230.369,275.071 228.500 C 275.193 228.005,275.452 227.600,275.647 227.600 C 275.841 227.600,276.000 227.240,276.000 226.800 C 276.000 226.360,276.180 226.000,276.400 226.000 C 276.620 226.000,276.800 225.550,276.800 225.000 C 276.800 224.267,276.587 224.000,276.000 224.000 C 275.560 224.000,275.200 223.820,275.200 223.600 C 275.200 223.338,267.133 223.200,251.800 223.200 L 228.400 223.200 228.387 187.500 C 228.377 158.449,228.276 151.670,227.843 151.100 C 227.356 150.458,226.221 150.400,214.256 150.400 L 201.200 150.400 201.200 200.000 M253.600 151.912 C 253.600 152.965,253.843 153.598,254.400 154.000 C 254.840 154.317,255.200 154.763,255.200 154.990 C 255.200 155.218,255.920 156.169,256.800 157.103 C 257.680 158.037,258.400 158.942,258.400 159.113 C 258.400 159.283,258.760 159.683,259.200 160.000 C 259.640 160.317,260.000 160.814,260.000 161.105 C 260.000 161.649,260.343 162.136,261.900 163.801 C 262.395 164.330,262.800 164.925,262.800 165.122 C 262.800 165.320,263.340 166.046,264.000 166.737 C 264.660 167.428,265.201 168.129,265.202 168.296 C 265.203 168.463,265.704 169.140,266.315 169.800 C 266.926 170.460,267.861 171.630,268.394 172.400 C 268.926 173.170,269.686 174.091,270.081 174.447 C 270.476 174.803,270.800 175.258,270.800 175.459 C 270.800 175.659,271.160 176.083,271.600 176.400 C 272.040 176.717,272.400 177.221,272.400 177.520 C 272.400 177.818,273.120 178.754,274.000 179.600 C 274.880 180.446,275.600 181.382,275.600 181.680 C 275.600 181.979,275.960 182.483,276.400 182.800 C 276.840 183.117,277.200 183.620,277.200 183.917 C 277.200 184.214,277.425 184.690,277.700 184.975 C 278.901 186.220,280.000 187.631,280.000 187.928 C 280.000 188.105,280.540 188.768,281.200 189.400 C 281.860 190.032,282.400 190.710,282.400 190.906 C 282.400 191.102,283.120 191.954,284.000 192.800 C 284.880 193.646,285.600 194.582,285.600 194.880 C 285.600 195.179,285.960 195.683,286.400 196.000 C 286.840 196.317,287.200 196.897,287.200 197.288 C 287.200 197.680,287.380 198.000,287.600 198.000 C 287.863 198.000,288.000 206.867,288.000 223.800 L 288.000 249.600 289.800 249.600 C 290.790 249.600,291.600 249.420,291.600 249.200 C 291.600 248.980,291.960 248.800,292.400 248.800 C 292.840 248.800,293.200 248.620,293.200 248.400 C 293.200 248.180,293.560 248.000,294.000 248.000 C 294.440 248.000,294.800 247.820,294.800 247.600 C 294.800 247.380,295.300 247.200,295.912 247.200 C 296.565 247.200,297.261 246.870,297.600 246.400 C 297.939 245.930,298.635 245.600,299.288 245.600 C 299.900 245.600,300.400 245.420,300.400 245.200 C 300.400 244.980,300.760 244.800,301.200 244.800 C 301.640 244.800,302.000 244.620,302.000 244.400 C 302.000 244.180,302.368 244.000,302.817 244.000 C 303.266 244.000,304.020 243.640,304.492 243.200 C 304.964 242.760,305.857 242.400,306.475 242.400 C 307.094 242.400,307.600 242.220,307.600 242.000 C 307.600 241.780,307.825 241.599,308.100 241.598 C 308.375 241.597,309.439 241.171,310.465 240.651 C 311.490 240.130,312.795 239.588,313.365 239.445 L 314.400 239.185 314.400 218.681 C 314.400 198.635,314.418 198.164,315.200 197.600 C 315.640 197.283,316.000 196.743,316.000 196.400 C 316.000 196.057,316.360 195.517,316.800 195.200 C 317.240 194.883,317.600 194.379,317.600 194.080 C 317.600 193.782,318.320 192.846,319.200 192.000 C 320.080 191.154,320.800 190.269,320.800 190.031 C 320.800 189.794,320.944 189.600,321.120 189.600 C 321.296 189.600,321.946 188.800,322.564 187.822 C 323.182 186.844,324.028 185.737,324.444 185.360 C 324.860 184.984,325.200 184.416,325.200 184.098 C 325.200 183.781,325.740 183.017,326.400 182.400 C 327.060 181.783,327.600 181.063,327.600 180.800 C 327.600 180.537,328.140 179.817,328.800 179.200 C 329.460 178.583,330.000 177.867,330.000 177.608 C 330.000 177.349,330.720 176.446,331.600 175.600 C 332.480 174.754,333.200 173.897,333.200 173.693 C 333.200 173.490,333.560 172.998,334.000 172.600 C 334.440 172.202,334.800 171.724,334.800 171.538 C 334.800 171.353,335.520 170.459,336.400 169.552 C 337.280 168.645,338.000 167.657,338.000 167.355 C 338.000 167.054,338.360 166.582,338.800 166.307 C 339.240 166.032,339.600 165.573,339.600 165.286 C 339.600 164.999,340.005 164.330,340.500 163.801 C 342.022 162.173,342.400 161.651,342.400 161.177 C 342.400 160.926,342.940 160.217,343.600 159.600 C 344.260 158.983,344.800 158.353,344.800 158.200 C 344.800 158.047,345.340 157.417,346.000 156.800 C 346.660 156.183,347.200 155.431,347.200 155.128 C 347.200 154.825,347.560 154.317,348.000 154.000 C 348.557 153.598,348.800 152.965,348.800 151.912 L 348.800 150.400 333.371 150.400 C 317.444 150.400,316.800 150.462,316.800 151.990 C 316.800 152.235,316.350 152.886,315.800 153.436 C 315.250 153.986,314.800 154.589,314.800 154.776 C 314.800 154.963,314.260 155.693,313.600 156.400 C 312.940 157.107,312.400 157.827,312.400 158.000 C 312.400 158.173,311.860 158.893,311.200 159.600 C 310.540 160.307,310.000 161.063,310.000 161.282 C 310.000 161.500,309.460 162.183,308.800 162.800 C 308.140 163.417,307.600 164.137,307.600 164.400 C 307.600 164.663,307.060 165.383,306.400 166.000 C 305.740 166.617,305.200 167.319,305.200 167.560 C 305.200 167.802,305.020 168.000,304.800 168.000 C 304.580 168.000,304.400 168.230,304.400 168.512 C 304.400 168.793,304.040 169.283,303.600 169.600 C 303.160 169.917,302.800 170.420,302.800 170.717 C 302.800 171.449,301.800 172.400,301.029 172.400 C 300.683 172.400,300.400 172.080,300.400 171.688 C 300.400 171.297,300.040 170.717,299.600 170.400 C 299.160 170.083,298.800 169.593,298.800 169.312 C 298.800 169.030,298.620 168.800,298.400 168.800 C 298.180 168.800,298.000 168.602,298.000 168.360 C 298.000 168.119,297.460 167.417,296.800 166.800 C 296.140 166.183,295.600 165.431,295.600 165.128 C 295.600 164.825,295.240 164.317,294.800 164.000 C 294.360 163.683,294.000 163.273,294.000 163.090 C 294.000 162.907,293.450 162.181,292.777 161.478 C 292.105 160.775,291.268 159.660,290.918 159.000 C 290.568 158.340,289.948 157.509,289.541 157.153 C 289.133 156.797,288.800 156.288,288.800 156.022 C 288.800 155.755,288.080 154.846,287.200 154.000 C 286.320 153.154,285.600 152.243,285.600 151.975 C 285.600 150.522,284.568 150.426,268.900 150.413 L 253.600 150.400 253.600 151.912 M189.300 151.599 C 189.781 151.601,189.647 152.788,189.036 153.938 C 188.726 154.522,188.207 155.630,187.883 156.400 C 187.560 157.170,186.980 158.520,186.594 159.400 C 186.209 160.280,185.582 161.720,185.200 162.600 C 180.599 173.208,179.682 175.083,178.957 175.361 C 178.614 175.493,170.181 175.600,160.216 175.600 C 145.069 175.600,142.021 175.693,141.627 176.167 C 141.078 176.829,141.177 194.513,141.734 195.067 C 141.917 195.250,152.537 195.438,165.334 195.485 C 178.130 195.531,188.825 195.576,189.100 195.585 C 189.758 195.605,189.735 196.618,189.046 197.938 C 188.741 198.522,188.130 199.810,187.688 200.800 C 187.246 201.790,186.443 203.590,185.903 204.800 C 185.363 206.010,184.063 208.980,183.015 211.400 C 180.604 216.966,179.915 218.362,179.336 218.848 C 179.053 219.086,171.708 219.270,160.469 219.319 C 150.348 219.364,141.917 219.550,141.733 219.732 C 141.550 219.915,141.353 223.695,141.296 228.132 C 141.161 238.641,141.520 237.678,136.952 239.812 C 134.848 240.795,133.008 241.600,132.863 241.599 C 132.718 241.598,131.880 241.953,131.000 242.387 C 130.120 242.821,128.140 243.740,126.600 244.430 C 125.060 245.119,122.678 246.219,121.306 246.872 C 116.939 248.954,117.414 254.531,117.298 199.882 C 117.198 152.760,117.209 151.971,117.974 151.688 C 118.565 151.469,150.786 151.429,189.300 151.599 M226.026 151.614 C 226.782 152.019,226.800 152.845,226.800 187.971 C 226.800 220.378,226.862 223.938,227.433 224.157 C 227.781 224.291,238.366 224.400,250.956 224.400 C 275.709 224.400,276.080 224.431,274.900 226.376 C 274.227 227.485,273.849 228.240,272.787 230.600 C 270.662 235.324,270.327 236.069,269.603 237.691 C 269.184 238.631,268.485 240.210,268.051 241.200 C 265.126 247.874,264.849 248.372,263.932 248.594 C 263.419 248.719,249.500 248.771,233.000 248.710 L 203.000 248.600 202.898 200.225 C 202.818 161.788,202.900 151.784,203.298 151.531 C 204.062 151.046,225.109 151.123,226.026 151.614 M283.206 151.603 C 283.621 151.825,285.002 153.400,286.276 155.103 C 287.549 156.807,288.732 158.380,288.904 158.600 C 289.405 159.242,296.300 168.351,298.500 171.279 C 301.431 175.180,301.220 175.203,304.627 170.600 C 305.930 168.840,307.096 167.310,307.219 167.200 C 307.342 167.090,310.029 163.537,313.191 159.305 C 318.071 152.773,319.125 151.577,320.170 151.390 C 322.508 150.970,347.324 151.372,347.477 151.832 C 347.601 152.204,346.696 153.546,344.633 156.046 C 344.340 156.402,343.942 156.962,343.750 157.292 C 343.557 157.622,342.918 158.501,342.329 159.246 C 340.303 161.807,337.580 165.403,336.306 167.200 C 335.605 168.190,333.508 170.980,331.648 173.400 C 327.517 178.774,326.816 179.696,323.593 184.000 C 322.193 185.870,319.467 189.490,317.535 192.044 C 312.802 198.302,313.168 196.103,313.215 218.052 C 313.238 228.575,313.137 237.379,312.989 237.617 C 312.683 238.113,305.376 241.600,304.643 241.600 C 304.377 241.600,303.989 241.764,303.780 241.965 C 302.953 242.760,290.347 248.065,289.792 247.852 C 289.278 247.655,289.200 244.327,289.200 222.574 L 289.200 197.523 288.325 196.262 C 287.845 195.568,286.938 194.370,286.312 193.600 C 284.898 191.864,285.886 193.159,277.007 181.400 C 272.854 175.900,268.723 170.473,267.828 169.340 C 266.932 168.207,264.763 165.327,263.006 162.940 C 261.250 160.553,259.719 158.510,259.605 158.400 C 259.491 158.290,258.588 157.120,257.599 155.800 C 256.610 154.480,255.575 153.162,255.300 152.871 C 253.816 151.303,254.119 151.267,269.126 151.232 C 277.385 151.212,282.739 151.353,283.206 151.603 M72.900 193.398 C 72.625 193.711,72.400 194.244,72.400 194.583 C 72.400 194.922,72.220 195.200,72.000 195.200 C 71.737 195.200,71.600 204.459,71.600 222.176 C 71.600 239.729,71.740 249.239,72.000 249.400 C 72.220 249.536,72.400 249.997,72.400 250.424 C 72.400 251.527,74.800 251.510,75.600 250.400 C 75.939 249.930,76.635 249.600,77.288 249.600 C 77.900 249.600,78.400 249.420,78.400 249.200 C 78.400 248.980,78.760 248.800,79.200 248.800 C 79.640 248.800,80.000 248.620,80.000 248.400 C 80.000 248.180,80.360 248.000,80.800 248.000 C 81.240 248.000,81.600 247.820,81.600 247.600 C 81.600 247.380,82.140 247.200,82.800 247.200 C 83.460 247.200,84.001 247.065,84.003 246.900 C 84.007 246.541,85.944 245.600,86.680 245.600 C 86.966 245.600,87.200 245.420,87.200 245.200 C 87.200 244.980,87.560 244.800,88.000 244.800 C 88.440 244.800,88.800 244.620,88.800 244.400 C 88.800 244.180,89.248 244.000,89.797 244.000 C 90.360 244.000,91.010 243.652,91.293 243.200 C 91.596 242.714,92.226 242.400,92.896 242.400 C 93.503 242.400,94.000 242.236,94.000 242.035 C 94.000 241.834,94.729 241.547,95.620 241.397 C 99.004 240.825,98.800 242.409,98.800 216.696 C 98.800 197.510,98.710 193.853,98.229 193.371 C 97.385 192.528,73.644 192.553,72.900 193.398 M97.100 194.598 C 98.041 194.931,97.803 238.234,96.856 239.045 C 96.447 239.395,93.785 240.717,90.941 241.982 C 88.097 243.247,85.147 244.561,84.385 244.902 C 83.623 245.243,81.920 245.999,80.600 246.583 C 79.280 247.167,77.545 247.994,76.746 248.422 C 74.983 249.364,73.769 249.418,73.443 248.567 C 72.863 247.057,73.180 194.851,73.770 194.520 C 74.346 194.197,96.172 194.270,97.100 194.598 " stroke="none" fill="#94bcf6" fill-rule="evenodd"></path><path id="path2" d="M190.650 32.427 C 186.497 32.610,181.871 33.038,180.371 33.379 C 178.870 33.721,176.855 34.000,175.894 34.000 C 174.932 34.000,173.258 34.253,172.173 34.563 C 171.088 34.872,169.120 35.246,167.800 35.394 C 166.480 35.541,164.590 35.907,163.600 36.207 C 162.610 36.507,160.900 36.926,159.800 37.138 C 158.700 37.350,156.540 37.879,155.000 38.314 C 153.460 38.750,151.120 39.406,149.800 39.773 C 148.480 40.141,147.229 40.612,147.020 40.821 C 146.811 41.029,146.304 41.200,145.894 41.200 C 145.484 41.200,144.305 41.546,143.274 41.969 C 142.243 42.392,140.140 43.225,138.600 43.821 C 132.239 46.280,124.719 49.788,119.400 52.778 C 118.520 53.273,116.810 54.233,115.600 54.913 C 114.390 55.592,112.082 57.014,110.471 58.074 C 108.859 59.133,107.454 60.000,107.347 60.000 C 107.240 60.000,106.489 60.508,105.677 61.130 C 104.864 61.751,102.400 63.584,100.200 65.202 C 79.580 80.369,62.767 100.162,50.426 123.800 C 48.884 126.753,44.629 136.326,43.402 139.600 C 43.113 140.370,42.500 141.933,42.039 143.074 C 41.577 144.215,41.200 145.484,41.200 145.894 C 41.200 146.304,41.029 146.811,40.821 147.020 C 40.612 147.229,40.174 148.390,39.847 149.600 C 39.520 150.810,39.079 152.340,38.867 153.000 C 37.753 156.464,37.231 158.356,36.990 159.800 C 36.844 160.680,36.482 162.300,36.186 163.400 C 35.508 165.920,35.016 168.656,33.601 177.800 C 32.168 187.056,31.999 213.488,33.324 221.000 C 33.674 222.980,34.166 225.860,34.418 227.400 C 34.671 228.940,35.055 231.280,35.272 232.600 C 35.489 233.920,35.912 235.900,36.211 237.000 C 36.510 238.100,36.932 239.810,37.150 240.800 C 37.367 241.790,37.923 243.860,38.384 245.400 C 38.846 246.940,39.492 249.168,39.820 250.352 C 40.148 251.535,40.547 252.705,40.706 252.952 C 40.865 253.198,41.200 254.120,41.451 255.000 C 41.966 256.809,42.683 258.833,43.435 260.600 C 43.715 261.260,44.696 263.600,45.615 265.800 C 46.534 268.000,49.025 273.310,51.151 277.600 C 54.962 285.290,56.265 288.256,57.214 291.400 C 57.479 292.280,57.855 293.171,58.048 293.380 C 58.242 293.589,58.400 294.257,58.400 294.865 C 58.400 295.473,58.760 296.884,59.200 298.000 C 59.640 299.116,60.006 300.608,60.014 301.315 C 60.022 302.022,60.294 303.680,60.619 305.000 C 62.209 311.461,61.755 324.013,59.572 333.918 C 59.289 335.202,59.331 335.899,59.739 336.678 C 60.257 337.666,60.287 337.594,60.319 335.294 C 60.338 333.960,60.743 331.278,61.219 329.334 C 62.484 324.170,62.498 309.528,61.243 304.268 C 60.779 302.326,60.400 300.384,60.400 299.952 C 60.400 298.678,57.216 288.457,56.725 288.154 C 56.546 288.043,56.400 287.648,56.401 287.276 C 56.402 286.904,56.013 285.790,55.538 284.800 C 54.420 282.472,54.075 281.755,53.661 280.900 C 53.474 280.515,53.019 279.660,52.651 279.000 C 50.638 275.396,46.638 266.724,44.626 261.600 C 43.805 259.510,42.788 256.921,42.367 255.847 C 41.945 254.772,41.600 253.671,41.600 253.400 C 41.600 253.129,41.260 252.028,40.844 250.953 C 40.428 249.879,39.876 248.190,39.616 247.200 C 39.357 246.210,38.797 244.296,38.372 242.947 C 37.947 241.599,37.600 239.880,37.600 239.127 C 37.600 238.375,37.450 237.589,37.267 237.380 C 36.760 236.800,36.000 233.859,36.000 232.473 C 36.000 231.794,35.724 230.195,35.386 228.920 C 35.049 227.644,34.606 225.070,34.402 223.200 C 34.198 221.330,33.821 218.270,33.565 216.400 C 32.968 212.033,32.965 187.663,33.562 183.600 C 33.804 181.950,34.174 178.980,34.385 177.000 C 34.595 175.020,35.044 172.356,35.383 171.080 C 35.723 169.805,36.000 168.206,36.000 167.527 C 36.000 166.141,36.760 163.200,37.267 162.620 C 37.450 162.411,37.600 161.625,37.600 160.873 C 37.600 160.120,37.947 158.401,38.372 157.053 C 38.797 155.704,39.357 153.790,39.616 152.800 C 39.876 151.810,40.428 150.121,40.844 149.047 C 41.260 147.972,41.600 146.871,41.600 146.600 C 41.600 145.346,48.267 129.481,50.929 124.400 C 53.026 120.397,53.880 118.835,54.755 117.400 C 55.157 116.740,55.847 115.570,56.287 114.800 C 67.084 95.924,84.799 76.675,103.337 63.673 C 108.002 60.402,111.564 58.000,111.753 58.000 C 111.856 58.000,113.424 57.090,115.237 55.977 C 117.050 54.865,119.178 53.627,119.967 53.228 C 120.755 52.828,122.750 51.794,124.400 50.929 C 126.050 50.065,129.830 48.312,132.800 47.034 C 140.506 43.720,140.576 43.692,148.200 41.017 C 150.518 40.204,152.352 39.681,154.600 39.191 C 157.736 38.509,158.415 38.300,158.630 37.952 C 158.749 37.759,159.645 37.600,160.619 37.600 C 161.594 37.600,163.338 37.240,164.496 36.800 C 165.653 36.360,167.410 35.998,168.400 35.996 C 169.390 35.993,171.100 35.708,172.200 35.362 C 173.300 35.016,175.820 34.572,177.800 34.374 C 179.780 34.176,182.660 33.810,184.200 33.561 C 187.990 32.946,211.959 32.946,216.400 33.560 C 218.270 33.819,221.330 34.198,223.200 34.402 C 225.070 34.606,227.644 35.049,228.920 35.386 C 230.195 35.724,231.802 36.000,232.491 36.000 C 233.738 36.000,235.972 36.581,237.295 37.249 C 237.677 37.442,238.553 37.600,239.242 37.600 C 239.931 37.600,241.599 37.947,242.947 38.372 C 244.296 38.797,246.210 39.357,247.200 39.616 C 248.190 39.876,249.879 40.428,250.953 40.844 C 252.028 41.260,253.129 41.600,253.400 41.600 C 253.671 41.600,254.772 41.945,255.847 42.367 C 256.921 42.788,259.510 43.804,261.600 44.624 C 292.782 56.857,319.210 78.212,339.011 107.175 C 341.095 110.223,342.800 112.843,342.800 112.997 C 342.800 113.151,343.139 113.754,343.553 114.338 C 344.458 115.613,345.617 117.641,347.592 121.400 C 348.401 122.940,349.262 124.560,349.507 125.000 C 349.751 125.440,350.426 126.880,351.007 128.200 C 351.587 129.520,352.480 131.500,352.991 132.600 C 353.502 133.700,354.307 135.590,354.781 136.800 C 355.255 138.010,355.808 139.360,356.011 139.800 C 356.542 140.956,357.603 143.945,358.141 145.800 C 358.397 146.680,358.735 147.602,358.894 147.848 C 359.053 148.095,359.445 149.265,359.764 150.448 C 360.084 151.632,360.736 153.950,361.214 155.600 C 361.692 157.250,362.164 159.320,362.264 160.200 C 362.364 161.080,362.600 162.160,362.790 162.600 C 363.540 164.344,364.000 166.183,364.000 167.440 C 364.000 168.167,364.282 169.805,364.627 171.080 C 364.972 172.356,365.414 174.930,365.609 176.800 C 365.804 178.670,366.187 181.730,366.460 183.600 C 367.131 188.195,367.131 211.805,366.460 216.400 C 366.187 218.270,365.804 221.330,365.609 223.200 C 365.414 225.070,364.972 227.644,364.627 228.920 C 364.282 230.195,364.000 231.832,364.000 232.557 C 364.000 233.283,363.644 234.939,363.210 236.238 C 362.775 237.537,362.415 239.012,362.410 239.516 C 362.404 240.020,362.032 241.640,361.582 243.116 C 361.132 244.592,360.569 246.520,360.332 247.400 C 359.743 249.583,356.428 259.536,356.020 260.346 C 355.839 260.706,355.294 261.990,354.809 263.200 C 354.324 264.410,353.597 266.120,353.193 267.000 C 352.789 267.880,351.891 269.860,351.198 271.400 C 350.504 272.940,349.749 274.548,349.520 274.972 C 349.290 275.397,348.436 277.017,347.621 278.572 C 345.714 282.208,344.495 284.335,343.553 285.662 C 343.139 286.246,342.800 286.849,342.800 287.003 C 342.800 287.388,335.517 298.009,333.065 301.199 C 323.602 313.511,313.616 323.495,301.199 333.061 C 298.033 335.499,287.392 342.800,287.003 342.800 C 286.849 342.800,286.246 343.139,285.662 343.553 C 284.645 344.274,282.800 345.354,280.755 346.425 C 280.230 346.699,279.530 347.073,279.200 347.254 C 276.171 348.919,266.643 353.423,263.200 354.818 C 261.990 355.309,260.460 355.933,259.800 356.206 C 258.078 356.917,256.042 357.624,254.200 358.149 C 253.320 358.400,252.398 358.735,252.152 358.894 C 251.905 359.053,250.735 359.445,249.552 359.764 C 248.368 360.084,246.050 360.736,244.400 361.214 C 242.750 361.692,240.680 362.164,239.800 362.264 C 238.920 362.364,237.840 362.599,237.400 362.786 C 235.748 363.491,234.936 363.699,232.600 364.017 C 231.280 364.197,229.390 364.543,228.400 364.785 C 227.410 365.027,225.070 365.384,223.200 365.579 C 221.330 365.773,218.270 366.160,216.400 366.439 C 211.804 367.123,188.240 367.120,183.600 366.435 C 181.730 366.159,178.670 365.782,176.800 365.599 C 174.930 365.415,172.356 364.981,171.080 364.633 C 169.805 364.285,168.206 364.000,167.527 364.000 C 166.141 364.000,163.200 363.240,162.620 362.733 C 162.411 362.550,161.625 362.400,160.873 362.400 C 160.120 362.400,158.401 362.053,157.053 361.628 C 155.704 361.203,153.790 360.648,152.800 360.394 C 151.810 360.140,150.100 359.605,149.000 359.205 C 147.900 358.806,146.640 358.387,146.200 358.275 C 145.307 358.046,141.037 356.554,139.800 356.038 C 136.091 354.491,134.240 353.694,132.000 352.677 C 128.732 351.193,122.521 348.183,121.200 347.442 C 120.650 347.134,119.300 346.472,118.200 345.972 C 117.100 345.472,115.545 344.734,114.746 344.331 C 113.946 343.929,112.947 343.600,112.526 343.600 C 112.104 343.600,111.589 343.442,111.380 343.249 C 110.924 342.829,108.154 341.918,103.800 340.758 C 100.781 339.953,97.521 339.401,89.600 338.352 C 85.516 337.811,76.875 338.120,71.800 338.987 C 67.371 339.745,63.269 339.934,62.887 339.400 C 62.729 339.180,62.158 338.640,61.618 338.200 L 60.635 337.400 61.618 338.662 C 63.077 340.537,64.082 340.884,66.737 340.427 C 76.212 338.799,86.350 338.367,91.678 339.366 C 93.539 339.715,95.875 340.000,96.869 340.000 C 97.862 340.000,99.721 340.360,101.000 340.800 C 102.279 341.240,103.891 341.600,104.583 341.600 C 105.274 341.600,106.011 341.764,106.220 341.964 C 106.429 342.164,107.500 342.597,108.600 342.928 C 111.941 343.930,117.071 346.155,123.800 349.520 C 131.056 353.148,137.218 356.000,137.800 356.000 C 137.954 356.000,138.646 356.243,139.340 356.540 C 142.322 357.819,145.061 358.800,145.646 358.800 C 145.993 358.800,146.880 359.101,147.616 359.468 C 148.352 359.835,149.595 360.274,150.377 360.444 C 151.160 360.613,153.060 361.141,154.600 361.617 C 156.140 362.092,158.210 362.654,159.200 362.864 C 160.190 363.074,161.900 363.486,163.000 363.780 C 166.452 364.704,172.074 365.717,175.400 366.016 C 177.160 366.174,179.410 366.548,180.400 366.847 C 183.017 367.638,216.429 367.642,219.600 366.852 C 220.810 366.550,223.150 366.175,224.800 366.018 C 228.295 365.686,234.218 364.572,236.800 363.761 C 237.790 363.450,238.975 363.197,239.433 363.198 C 240.230 363.200,244.472 362.052,247.000 361.151 C 247.660 360.916,248.998 360.560,249.972 360.360 C 250.947 360.161,252.156 359.728,252.658 359.399 C 253.161 359.069,253.890 358.800,254.278 358.800 C 254.929 358.800,257.571 357.864,260.660 356.540 C 261.354 356.243,262.046 356.000,262.200 356.000 C 262.354 356.000,263.136 355.706,263.940 355.347 C 264.743 354.988,266.210 354.337,267.200 353.900 C 286.272 345.483,303.510 333.692,318.213 319.006 C 323.692 313.533,324.415 312.756,328.648 307.799 C 338.178 296.636,347.470 281.694,353.896 267.200 C 354.335 266.210,354.988 264.743,355.347 263.940 C 355.706 263.136,356.000 262.354,356.000 262.200 C 356.000 262.046,356.243 261.354,356.540 260.660 C 356.837 259.967,357.438 258.410,357.875 257.200 C 358.312 255.990,358.899 254.370,359.179 253.600 C 359.459 252.830,359.872 251.480,360.097 250.600 C 360.322 249.720,360.669 248.640,360.867 248.200 C 361.235 247.382,362.136 244.014,362.847 240.800 C 363.066 239.810,363.486 238.100,363.780 237.000 C 364.647 233.761,365.703 228.025,366.026 224.800 C 366.192 223.150,366.531 220.917,366.779 219.837 C 367.983 214.613,367.970 185.323,366.762 180.086 C 366.523 179.048,366.192 176.850,366.026 175.200 C 365.703 171.975,364.647 166.239,363.780 163.000 C 363.486 161.900,363.066 160.190,362.847 159.200 C 362.136 155.986,361.235 152.618,360.867 151.800 C 360.669 151.360,360.322 150.280,360.097 149.400 C 359.872 148.520,359.459 147.170,359.179 146.400 C 358.899 145.630,358.312 144.010,357.875 142.800 C 357.438 141.590,356.837 140.033,356.540 139.340 C 356.243 138.646,356.000 137.954,356.000 137.800 C 356.000 137.517,355.747 136.921,353.793 132.600 C 350.004 124.220,344.926 114.767,341.428 109.580 C 340.752 108.579,340.020 107.464,339.800 107.101 C 338.263 104.566,331.824 95.975,328.633 92.200 C 319.122 80.950,306.210 69.180,295.400 61.907 C 294.520 61.315,293.067 60.328,292.171 59.715 C 290.044 58.258,289.771 58.090,284.600 55.048 C 277.213 50.701,273.601 48.953,260.600 43.434 C 258.828 42.681,256.806 41.965,255.000 41.451 C 254.120 41.200,253.141 40.829,252.825 40.627 C 252.509 40.425,251.339 40.030,250.225 39.748 C 249.111 39.466,246.940 38.855,245.400 38.389 C 243.860 37.923,241.378 37.288,239.885 36.977 C 238.392 36.666,236.828 36.229,236.411 36.006 C 235.994 35.783,235.056 35.596,234.326 35.591 C 233.597 35.585,231.662 35.225,230.027 34.791 C 228.392 34.356,226.289 34.000,225.353 34.000 C 224.418 34.000,222.426 33.746,220.926 33.435 C 218.445 32.920,214.435 32.662,202.400 32.242 C 200.090 32.161,194.802 32.245,190.650 32.427 M82.400 150.572 C 72.539 153.316,68.785 165.037,75.468 172.217 C 84.686 182.121,100.321 174.516,98.295 161.113 C 97.175 153.696,89.489 148.600,82.400 150.572 M88.600 151.440 C 97.394 152.911,101.034 166.105,94.331 172.212 C 91.811 174.508,91.390 174.742,88.320 175.544 L 85.241 176.350 82.320 175.530 C 71.706 172.552,69.383 159.136,78.422 153.016 C 80.220 151.799,84.204 150.750,86.000 151.022 C 86.550 151.105,87.720 151.293,88.600 151.440 M117.974 151.688 C 117.209 151.971,117.198 152.760,117.298 199.882 C 117.414 254.531,116.939 248.954,121.306 246.872 C 122.678 246.219,125.060 245.119,126.600 244.430 C 128.140 243.740,130.120 242.821,131.000 242.387 C 131.880 241.953,132.718 241.598,132.863 241.599 C 133.008 241.600,134.848 240.795,136.952 239.812 C 141.520 237.678,141.161 238.641,141.296 228.132 C 141.353 223.695,141.550 219.915,141.733 219.732 C 141.917 219.550,150.348 219.364,160.469 219.319 C 171.708 219.270,179.053 219.086,179.336 218.848 C 179.915 218.362,180.604 216.966,183.015 211.400 C 184.063 208.980,185.363 206.010,185.903 204.800 C 186.443 203.590,187.246 201.790,187.688 200.800 C 188.130 199.810,188.741 198.522,189.046 197.938 C 189.735 196.618,189.758 195.605,189.100 195.585 C 188.825 195.576,178.130 195.531,165.334 195.485 C 152.537 195.438,141.917 195.250,141.734 195.067 C 141.177 194.513,141.078 176.829,141.627 176.167 C 142.021 175.693,145.069 175.600,160.216 175.600 C 170.181 175.600,178.614 175.493,178.957 175.361 C 179.682 175.083,180.599 173.208,185.200 162.600 C 185.582 161.720,186.209 160.280,186.594 159.400 C 186.980 158.520,187.560 157.170,187.883 156.400 C 188.207 155.630,188.726 154.522,189.036 153.938 C 189.647 152.788,189.781 151.601,189.300 151.599 C 150.786 151.429,118.565 151.469,117.974 151.688 M203.298 151.531 C 202.900 151.784,202.818 161.788,202.898 200.225 L 203.000 248.600 233.000 248.710 C 249.500 248.771,263.419 248.719,263.932 248.594 C 264.849 248.372,265.126 247.874,268.051 241.200 C 268.485 240.210,269.184 238.631,269.603 237.691 C 270.327 236.069,270.662 235.324,272.787 230.600 C 273.849 228.240,274.227 227.485,274.900 226.376 C 276.080 224.431,275.709 224.400,250.956 224.400 C 238.366 224.400,227.781 224.291,227.433 224.157 C 226.862 223.938,226.800 220.378,226.800 187.971 C 226.800 152.845,226.782 152.019,226.026 151.614 C 225.109 151.123,204.062 151.046,203.298 151.531 M255.300 151.465 C 255.025 151.576,254.800 151.819,254.800 152.005 C 254.800 152.191,255.025 152.581,255.300 152.871 C 255.575 153.162,256.610 154.480,257.599 155.800 C 258.588 157.120,259.491 158.290,259.605 158.400 C 259.719 158.510,261.250 160.553,263.006 162.940 C 264.763 165.327,266.932 168.207,267.828 169.340 C 268.723 170.473,272.854 175.900,277.007 181.400 C 285.886 193.159,284.898 191.864,286.312 193.600 C 286.938 194.370,287.845 195.568,288.325 196.262 L 289.200 197.523 289.200 222.574 C 289.200 244.327,289.278 247.655,289.792 247.852 C 290.347 248.065,302.953 242.760,303.780 241.965 C 303.989 241.764,304.377 241.600,304.643 241.600 C 305.376 241.600,312.683 238.113,312.989 237.617 C 313.137 237.379,313.238 228.575,313.215 218.052 C 313.168 196.103,312.802 198.302,317.535 192.044 C 319.467 189.490,322.193 185.870,323.593 184.000 C 326.816 179.696,327.517 178.774,331.648 173.400 C 333.508 170.980,335.605 168.190,336.306 167.200 C 337.580 165.403,340.303 161.807,342.329 159.246 C 342.918 158.501,343.557 157.622,343.750 157.292 C 343.942 156.962,344.340 156.402,344.633 156.046 C 346.696 153.546,347.601 152.204,347.477 151.832 C 347.324 151.372,322.508 150.970,320.170 151.390 C 319.125 151.577,318.071 152.773,313.191 159.305 C 310.029 163.537,307.342 167.090,307.219 167.200 C 307.096 167.310,305.930 168.840,304.627 170.600 C 301.220 175.203,301.431 175.180,298.500 171.279 C 296.300 168.351,289.405 159.242,288.904 158.600 C 288.732 158.380,287.549 156.807,286.276 155.103 C 285.002 153.400,283.621 151.825,283.206 151.603 C 282.443 151.195,256.291 151.065,255.300 151.465 M188.800 152.405 C 188.800 152.628,188.646 153.123,188.459 153.505 C 187.997 154.446,186.130 158.647,184.595 162.200 C 184.310 162.860,183.715 164.210,183.273 165.200 C 182.831 166.190,182.082 167.900,181.610 169.000 C 181.138 170.100,180.360 171.855,179.881 172.900 L 179.011 174.800 160.595 174.800 C 144.574 174.800,142.062 174.881,141.289 175.423 C 140.116 176.244,139.883 193.484,141.023 195.111 L 141.645 196.000 164.999 196.000 C 188.626 196.000,189.189 196.036,188.472 197.484 C 187.971 198.496,185.866 203.172,184.007 207.400 C 183.621 208.280,182.916 209.863,182.442 210.917 C 181.968 211.971,181.281 213.591,180.916 214.517 C 180.550 215.443,179.970 216.703,179.626 217.317 L 179.000 218.434 160.320 218.517 C 145.630 218.582,141.529 218.711,141.120 219.119 C 140.732 219.506,140.569 221.903,140.479 228.545 L 140.359 237.453 137.879 238.570 C 136.516 239.184,134.680 240.017,133.800 240.419 C 131.895 241.292,127.239 243.396,125.000 244.396 C 124.120 244.789,122.360 245.588,121.089 246.172 C 119.818 246.756,118.603 247.126,118.389 246.993 C 117.948 246.721,117.826 152.707,118.267 152.267 C 118.722 151.811,188.800 151.949,188.800 152.405 M226.000 188.267 C 226.110 208.103,226.350 224.483,226.533 224.667 C 226.716 224.850,237.561 225.049,250.633 225.109 C 275.375 225.223,275.674 225.245,273.800 226.800 C 273.470 227.074,273.200 227.486,273.200 227.715 C 273.200 227.944,272.565 229.470,271.788 231.106 C 271.012 232.742,269.917 235.188,269.355 236.540 C 268.793 237.893,267.832 240.080,267.218 241.400 C 266.604 242.720,265.697 244.745,265.202 245.900 C 264.707 247.055,264.144 248.002,263.951 248.005 C 255.175 248.135,203.842 247.949,203.579 247.787 C 203.143 247.518,203.038 152.695,203.473 152.260 C 203.623 152.110,208.708 152.035,214.773 152.094 L 225.800 152.200 226.000 188.267 M285.274 154.900 C 302.509 177.949,300.965 176.523,304.139 172.331 C 305.053 171.124,308.445 166.641,311.677 162.369 C 314.910 158.096,318.060 154.009,318.677 153.287 L 319.800 151.973 333.302 152.087 L 346.805 152.200 340.745 160.200 C 337.413 164.600,329.761 174.728,323.743 182.707 L 312.800 197.214 312.800 216.834 C 312.800 236.203,312.689 237.996,311.486 238.002 C 311.219 238.004,310.472 238.280,309.827 238.617 C 309.182 238.953,306.572 240.144,304.027 241.263 C 299.288 243.348,296.845 244.444,293.025 246.200 C 290.771 247.236,290.003 247.414,289.995 246.900 C 289.993 246.735,289.948 235.517,289.895 221.971 L 289.800 197.342 288.722 195.771 C 288.129 194.907,285.243 191.050,282.308 187.200 C 279.372 183.350,274.653 177.140,271.820 173.400 C 264.111 163.222,261.821 160.221,261.598 160.000 C 260.987 159.397,256.313 153.039,256.130 152.563 C 255.947 152.086,257.986 152.000,269.510 152.000 L 283.106 152.000 285.274 154.900 M73.770 194.520 C 73.180 194.851,72.863 247.057,73.443 248.567 C 73.769 249.418,74.983 249.364,76.746 248.422 C 77.545 247.994,79.280 247.167,80.600 246.583 C 81.920 245.999,83.623 245.243,84.385 244.902 C 85.147 244.561,88.097 243.247,90.941 241.982 C 93.785 240.717,96.447 239.395,96.856 239.045 C 97.803 238.234,98.041 194.931,97.100 194.598 C 96.172 194.270,74.346 194.197,73.770 194.520 M96.703 216.697 L 96.600 238.594 94.000 239.894 C 92.570 240.609,91.283 241.195,91.140 241.197 C 90.997 241.199,89.287 241.929,87.340 242.819 C 85.393 243.710,83.440 244.601,83.000 244.800 C 82.560 244.999,80.607 245.890,78.660 246.781 C 76.713 247.671,74.871 248.400,74.566 248.400 C 74.059 248.400,73.444 196.665,73.933 195.199 C 74.018 194.946,78.223 194.800,85.437 194.800 L 96.807 194.800 96.703 216.697 " stroke="none" fill="#5896f4" fill-rule="evenodd"></path></g></svg>