<?xml version="1.0" standalone="no"?><!DOCTYPE svg PUBLIC "-//W3C//DTD SVG 1.1//EN" "http://www.w3.org/Graphics/SVG/1.1/DTD/svg11.dtd"><svg t="1574660150196" class="icon" viewBox="0 0 1024 1024" version="1.1" xmlns="http://www.w3.org/2000/svg" p-id="3132" xmlns:xlink="http://www.w3.org/1999/xlink" width="16" height="16"><defs><style type="text/css"></style></defs><path d="M688.61 138.81c12.25-1.26 25.19-1.37 36.64 3.85 11.82 5.16 20.61 15.41 26.44 26.67 5.43 10 8.73 20.94 11.91 31.8 38.32 115.67 76.68 231.31 115.02 346.97 9.39 28.14 19.54 56.06 26.89 84.83 4.68 16.08 5.34 33.45 0.89 49.66-5.54 20.54-18.64 38.45-34.98 51.82-37.25 31.43-81.29 53.49-126.09 72.02-24.47 10.04-49.37 19-74.48 27.28-31.07 10.2-62.43 19.57-94.28 27.04-65.37 15.42-131.82 26.06-198.58 33.27-11.27 1.54-22.68 1.21-34.02 0.92-16.78-1.08-34.21-3.88-48.56-13.24-12.7-8.16-21.46-21.17-27.11-34.95-5.55-13.1-8.66-27.03-12.26-40.74-38-146.69-75.96-293.39-113.93-440.08-6.03-18.95-9.96-39.24-6.35-59.07 2.56-14.77 10.17-28.77 21.87-38.26 11.68-9.72 26.44-14.83 41.25-17.35 72.93-15.04 145.71-30.88 218.16-48.12 45.77-11.12 91.38-22.89 137.21-33.75 35.24-8.49 70.55-16.63 105.9-24.64 9.48-1.97 18.8-4.8 28.46-5.93m-88.7 126.13c-50.26 4.35-100.3 11.87-149.45 23.33-43 9.79-85.46 23.58-124.07 45.16-25.68 14.48-49.68 32.65-68.21 55.77-14.5 18.2-25.42 39.69-29.23 62.79-3.86 22.15-0.89 45.41 8.18 65.96 7 15.57 19.53 28.2 34.2 36.7 17.89 10.47 38.21 15.91 58.53 19.23 29.78 4.91 60.07 4.66 90.16 3.99 21.01-1.07 42-2.42 62.92-4.58 23.34-2.04 46.6-5.6 70.09-5.35 18.38-0.25 37.05 0.77 54.73 6.17 7.41 2.48 15.15 5.83 19.91 12.32 3.64 4.88 3.63 11.73 0.91 17.04-4.66 9.23-12.86 15.97-21.1 21.91-15.67 11-33.15 19.07-50.79 26.36-44.06 17.71-91.38 26.07-138.64 28.81-39.42 2.18-79.05 0.59-118.16-4.83 11.23 29.19 22.45 58.39 33.62 87.61 18.78 1.84 37.66 2.64 56.53 2.88 59.35 1.02 118.93-3.18 177.1-15.35 36.39-7.81 72.03-19.15 106.35-33.54 32.66-13.97 64.36-31.18 91.31-54.55 22.16-19.24 41.25-43.69 48.34-72.64 8.77-34.97-3.49-74.06-30.08-98.26-11.13-10.24-24.39-17.94-38.31-23.71-22.21-9.08-46.01-13.57-69.79-16.05-50.91-5-102.08-0.91-152.93 2.69-22.96 1.55-46.33 3.53-69.03-1.42-10.46-2.27-21.09-5.95-29.03-13.39-5.01-4.84-8.43-11.79-7.48-18.88 1.16-10.18 8.11-18.54 15.57-25.04 14.18-12 31.7-19.21 49.33-24.48 45.35-13.76 92.49-20.77 139.65-24.28 38.22-2.49 76.66-3.23 114.87-0.23-10.75-28.53-21.88-56.92-32.61-85.46-34.48-1.16-69.01 0.52-103.39 3.32z" p-id="3133"></path></svg>