<?xml version="1.0" standalone="no"?>
<!DOCTYPE svg PUBLIC "-//W3C//DTD SVG 20010904//EN"
 "http://www.w3.org/TR/2001/REC-SVG-20010904/DTD/svg10.dtd">
<svg version="1.0" xmlns="http://www.w3.org/2000/svg"
 width="48.000000pt" height="48.000000pt" viewBox="0 0 48.000000 48.000000"
 preserveAspectRatio="xMidYMid meet">

<g transform="translate(0.000000,48.000000) scale(0.100000,-0.100000)"
fill="#000000" stroke="none">
<path d="M0 240 l0 -240 240 0 240 0 0 240 0 240 -240 0 -240 0 0 -240z m265
180 c36 -14 55 -65 55 -150 0 -86 -18 -110 -80 -110 -62 0 -80 24 -80 110 0
100 19 140 77 159 1 1 13 -3 28 -9z m-118 -207 c11 -24 32 -45 56 -56 36 -18
38 -18 75 0 23 11 44 32 55 56 23 46 37 47 37 2 0 -26 -8 -43 -35 -70 -20 -19
-42 -35 -49 -35 -8 0 -16 -9 -19 -20 -7 -27 -47 -27 -47 0 0 13 -7 20 -20 20
-10 0 -35 16 -55 35 -27 27 -35 44 -35 70 0 45 14 44 37 -2z"/>
<path d="M216 398 c3 -4 14 -8 24 -8 10 0 21 4 24 8 3 5 -8 8 -24 8 -16 0 -27
-3 -24 -8z"/>
</g>
</svg>
